# Dungeon Map: dungeon_1787048292379
# Generated: 2026-08-18T10:28:13.885Z
# Vertices: 800, Faces: 1200

v 0.000000 0.000000 10.000000
v 10.000000 0.000000 10.000000
v 10.000000 10.000000 10.000000
v 0.000000 10.000000 10.000000
v 0.000000 0.000000 0.000000
v 0.000000 10.000000 0.000000
v 10.000000 10.000000 0.000000
v 10.000000 0.000000 0.000000
v 0.000000 10.000000 10.000000
v 10.000000 10.000000 10.000000
v 10.000000 20.000000 10.000000
v 0.000000 20.000000 10.000000
v 0.000000 10.000000 0.000000
v 0.000000 20.000000 0.000000
v 10.000000 20.000000 0.000000
v 10.000000 10.000000 0.000000
v 0.000000 20.000000 10.000000
v 10.000000 20.000000 10.000000
v 10.000000 30.000000 10.000000
v 0.000000 30.000000 10.000000
v 0.000000 20.000000 0.000000
v 0.000000 30.000000 0.000000
v 10.000000 30.000000 0.000000
v 10.000000 20.000000 0.000000
v 0.000000 20.000000 0.000000
v 10.000000 20.000000 0.000000
v 10.000000 30.000000 0.000000
v 0.000000 30.000000 0.000000
v 0.000000 20.000000 -10.000000
v 0.000000 30.000000 -10.000000
v 10.000000 30.000000 -10.000000
v 10.000000 20.000000 -10.000000
v 0.000000 20.000000 -10.000000
v 10.000000 20.000000 -10.000000
v 10.000000 30.000000 -10.000000
v 0.000000 30.000000 -10.000000
v 0.000000 20.000000 -20.000000
v 0.000000 30.000000 -20.000000
v 10.000000 30.000000 -20.000000
v 10.000000 20.000000 -20.000000
v 10.000000 20.000000 -10.000000
v 20.000000 20.000000 -10.000000
v 20.000000 30.000000 -10.000000
v 10.000000 30.000000 -10.000000
v 10.000000 20.000000 -20.000000
v 10.000000 30.000000 -20.000000
v 20.000000 30.000000 -20.000000
v 20.000000 20.000000 -20.000000
v 10.000000 20.000000 -20.000000
v 20.000000 20.000000 -20.000000
v 20.000000 30.000000 -20.000000
v 10.000000 30.000000 -20.000000
v 10.000000 20.000000 -30.000000
v 10.000000 30.000000 -30.000000
v 20.000000 30.000000 -30.000000
v 20.000000 20.000000 -30.000000
v 10.000000 30.000000 -20.000000
v 20.000000 30.000000 -20.000000
v 20.000000 40.000000 -20.000000
v 10.000000 40.000000 -20.000000
v 10.000000 30.000000 -30.000000
v 10.000000 40.000000 -30.000000
v 20.000000 40.000000 -30.000000
v 20.000000 30.000000 -30.000000
v 10.000000 30.000000 -30.000000
v 20.000000 30.000000 -30.000000
v 20.000000 40.000000 -30.000000
v 10.000000 40.000000 -30.000000
v 10.000000 30.000000 -40.000000
v 10.000000 40.000000 -40.000000
v 20.000000 40.000000 -40.000000
v 20.000000 30.000000 -40.000000
v 10.000000 20.000000 -30.000000
v 20.000000 20.000000 -30.000000
v 20.000000 30.000000 -30.000000
v 10.000000 30.000000 -30.000000
v 10.000000 20.000000 -40.000000
v 10.000000 30.000000 -40.000000
v 20.000000 30.000000 -40.000000
v 20.000000 20.000000 -40.000000
v 10.000000 10.000000 -30.000000
v 20.000000 10.000000 -30.000000
v 20.000000 20.000000 -30.000000
v 10.000000 20.000000 -30.000000
v 10.000000 10.000000 -40.000000
v 10.000000 20.000000 -40.000000
v 20.000000 20.000000 -40.000000
v 20.000000 10.000000 -40.000000
v 10.000000 0.000000 -30.000000
v 20.000000 0.000000 -30.000000
v 20.000000 10.000000 -30.000000
v 10.000000 10.000000 -30.000000
v 10.000000 0.000000 -40.000000
v 10.000000 10.000000 -40.000000
v 20.000000 10.000000 -40.000000
v 20.000000 0.000000 -40.000000
v 20.000000 0.000000 -30.000000
v 30.000000 0.000000 -30.000000
v 30.000000 10.000000 -30.000000
v 20.000000 10.000000 -30.000000
v 20.000000 0.000000 -40.000000
v 20.000000 10.000000 -40.000000
v 30.000000 10.000000 -40.000000
v 30.000000 0.000000 -40.000000
v 30.000000 0.000000 -30.000000
v 40.000000 0.000000 -30.000000
v 40.000000 10.000000 -30.000000
v 30.000000 10.000000 -30.000000
v 30.000000 0.000000 -40.000000
v 30.000000 10.000000 -40.000000
v 40.000000 10.000000 -40.000000
v 40.000000 0.000000 -40.000000
v 30.000000 0.000000 -40.000000
v 40.000000 0.000000 -40.000000
v 40.000000 10.000000 -40.000000
v 30.000000 10.000000 -40.000000
v 30.000000 0.000000 -50.000000
v 30.000000 10.000000 -50.000000
v 40.000000 10.000000 -50.000000
v 40.000000 0.000000 -50.000000
v 30.000000 10.000000 -40.000000
v 40.000000 10.000000 -40.000000
v 40.000000 20.000000 -40.000000
v 30.000000 20.000000 -40.000000
v 30.000000 10.000000 -50.000000
v 30.000000 20.000000 -50.000000
v 40.000000 20.000000 -50.000000
v 40.000000 10.000000 -50.000000
v 30.000000 20.000000 -40.000000
v 40.000000 20.000000 -40.000000
v 40.000000 30.000000 -40.000000
v 30.000000 30.000000 -40.000000
v 30.000000 20.000000 -50.000000
v 30.000000 30.000000 -50.000000
v 40.000000 30.000000 -50.000000
v 40.000000 20.000000 -50.000000
v 30.000000 20.000000 -50.000000
v 40.000000 20.000000 -50.000000
v 40.000000 30.000000 -50.000000
v 30.000000 30.000000 -50.000000
v 30.000000 20.000000 -60.000000
v 30.000000 30.000000 -60.000000
v 40.000000 30.000000 -60.000000
v 40.000000 20.000000 -60.000000
v 30.000000 20.000000 -60.000000
v 40.000000 20.000000 -60.000000
v 40.000000 30.000000 -60.000000
v 30.000000 30.000000 -60.000000
v 30.000000 20.000000 -70.000000
v 30.000000 30.000000 -70.000000
v 40.000000 30.000000 -70.000000
v 40.000000 20.000000 -70.000000
v 30.000000 20.000000 -70.000000
v 40.000000 20.000000 -70.000000
v 40.000000 30.000000 -70.000000
v 30.000000 30.000000 -70.000000
v 30.000000 20.000000 -80.000000
v 30.000000 30.000000 -80.000000
v 40.000000 30.000000 -80.000000
v 40.000000 20.000000 -80.000000
v 30.000000 10.000000 -70.000000
v 40.000000 10.000000 -70.000000
v 40.000000 20.000000 -70.000000
v 30.000000 20.000000 -70.000000
v 30.000000 10.000000 -80.000000
v 30.000000 20.000000 -80.000000
v 40.000000 20.000000 -80.000000
v 40.000000 10.000000 -80.000000
v 30.000000 0.000000 -70.000000
v 40.000000 0.000000 -70.000000
v 40.000000 10.000000 -70.000000
v 30.000000 10.000000 -70.000000
v 30.000000 0.000000 -80.000000
v 30.000000 10.000000 -80.000000
v 40.000000 10.000000 -80.000000
v 40.000000 0.000000 -80.000000
v 30.000000 0.000000 -80.000000
v 40.000000 0.000000 -80.000000
v 40.000000 10.000000 -80.000000
v 30.000000 10.000000 -80.000000
v 30.000000 0.000000 -90.000000
v 30.000000 10.000000 -90.000000
v 40.000000 10.000000 -90.000000
v 40.000000 0.000000 -90.000000
v 30.000000 0.000000 -90.000000
v 40.000000 0.000000 -90.000000
v 40.000000 10.000000 -90.000000
v 30.000000 10.000000 -90.000000
v 30.000000 0.000000 -100.000000
v 30.000000 10.000000 -100.000000
v 40.000000 10.000000 -100.000000
v 40.000000 0.000000 -100.000000
v 30.000000 0.000000 -100.000000
v 40.000000 0.000000 -100.000000
v 40.000000 10.000000 -100.000000
v 30.000000 10.000000 -100.000000
v 30.000000 0.000000 -110.000000
v 30.000000 10.000000 -110.000000
v 40.000000 10.000000 -110.000000
v 40.000000 0.000000 -110.000000
v 0.000000 -10.000000 10.000000
v 10.000000 -10.000000 10.000000
v 10.000000 0.000000 10.000000
v 0.000000 0.000000 10.000000
v 0.000000 -10.000000 0.000000
v 0.000000 0.000000 0.000000
v 10.000000 0.000000 0.000000
v 10.000000 -10.000000 0.000000
v 0.000000 -10.000000 0.000000
v 10.000000 -10.000000 0.000000
v 10.000000 0.000000 0.000000
v 0.000000 0.000000 0.000000
v 0.000000 -10.000000 -10.000000
v 0.000000 0.000000 -10.000000
v 10.000000 0.000000 -10.000000
v 10.000000 -10.000000 -10.000000
v -10.000000 -10.000000 0.000000
v 0.000000 -10.000000 0.000000
v 0.000000 0.000000 0.000000
v -10.000000 0.000000 0.000000
v -10.000000 -10.000000 -10.000000
v -10.000000 0.000000 -10.000000
v 0.000000 0.000000 -10.000000
v 0.000000 -10.000000 -10.000000
v -10.000000 0.000000 0.000000
v 0.000000 0.000000 0.000000
v 0.000000 10.000000 0.000000
v -10.000000 10.000000 0.000000
v -10.000000 0.000000 -10.000000
v -10.000000 10.000000 -10.000000
v 0.000000 10.000000 -10.000000
v 0.000000 0.000000 -10.000000
v -10.000000 0.000000 10.000000
v 0.000000 0.000000 10.000000
v 0.000000 10.000000 10.000000
v -10.000000 10.000000 10.000000
v -10.000000 0.000000 0.000000
v -10.000000 10.000000 0.000000
v 0.000000 10.000000 0.000000
v 0.000000 0.000000 0.000000
v -10.000000 10.000000 10.000000
v 0.000000 10.000000 10.000000
v 0.000000 20.000000 10.000000
v -10.000000 20.000000 10.000000
v -10.000000 10.000000 0.000000
v -10.000000 20.000000 0.000000
v 0.000000 20.000000 0.000000
v 0.000000 10.000000 0.000000
v -10.000000 10.000000 20.000000
v 0.000000 10.000000 20.000000
v 0.000000 20.000000 20.000000
v -10.000000 20.000000 20.000000
v -10.000000 10.000000 10.000000
v -10.000000 20.000000 10.000000
v 0.000000 20.000000 10.000000
v 0.000000 10.000000 10.000000
v 0.000000 10.000000 20.000000
v 10.000000 10.000000 20.000000
v 10.000000 20.000000 20.000000
v 0.000000 20.000000 20.000000
v 0.000000 10.000000 10.000000
v 0.000000 20.000000 10.000000
v 10.000000 20.000000 10.000000
v 10.000000 10.000000 10.000000
v 0.000000 10.000000 30.000000
v 10.000000 10.000000 30.000000
v 10.000000 20.000000 30.000000
v 0.000000 20.000000 30.000000
v 0.000000 10.000000 20.000000
v 0.000000 20.000000 20.000000
v 10.000000 20.000000 20.000000
v 10.000000 10.000000 20.000000
v 0.000000 10.000000 40.000000
v 10.000000 10.000000 40.000000
v 10.000000 20.000000 40.000000
v 0.000000 20.000000 40.000000
v 0.000000 10.000000 30.000000
v 0.000000 20.000000 30.000000
v 10.000000 20.000000 30.000000
v 10.000000 10.000000 30.000000
v 10.000000 10.000000 40.000000
v 20.000000 10.000000 40.000000
v 20.000000 20.000000 40.000000
v 10.000000 20.000000 40.000000
v 10.000000 10.000000 30.000000
v 10.000000 20.000000 30.000000
v 20.000000 20.000000 30.000000
v 20.000000 10.000000 30.000000
v 10.000000 10.000000 50.000000
v 20.000000 10.000000 50.000000
v 20.000000 20.000000 50.000000
v 10.000000 20.000000 50.000000
v 10.000000 10.000000 40.000000
v 10.000000 20.000000 40.000000
v 20.000000 20.000000 40.000000
v 20.000000 10.000000 40.000000
v 10.000000 10.000000 60.000000
v 20.000000 10.000000 60.000000
v 20.000000 20.000000 60.000000
v 10.000000 20.000000 60.000000
v 10.000000 10.000000 50.000000
v 10.000000 20.000000 50.000000
v 20.000000 20.000000 50.000000
v 20.000000 10.000000 50.000000
v 0.000000 10.000000 60.000000
v 10.000000 10.000000 60.000000
v 10.000000 20.000000 60.000000
v 0.000000 20.000000 60.000000
v 0.000000 10.000000 50.000000
v 0.000000 20.000000 50.000000
v 10.000000 20.000000 50.000000
v 10.000000 10.000000 50.000000
v 0.000000 0.000000 60.000000
v 10.000000 0.000000 60.000000
v 10.000000 10.000000 60.000000
v 0.000000 10.000000 60.000000
v 0.000000 0.000000 50.000000
v 0.000000 10.000000 50.000000
v 10.000000 10.000000 50.000000
v 10.000000 0.000000 50.000000
v 0.000000 -10.000000 60.000000
v 10.000000 -10.000000 60.000000
v 10.000000 0.000000 60.000000
v 0.000000 0.000000 60.000000
v 0.000000 -10.000000 50.000000
v 0.000000 0.000000 50.000000
v 10.000000 0.000000 50.000000
v 10.000000 -10.000000 50.000000
v -10.000000 -10.000000 60.000000
v 0.000000 -10.000000 60.000000
v 0.000000 0.000000 60.000000
v -10.000000 0.000000 60.000000
v -10.000000 -10.000000 50.000000
v -10.000000 0.000000 50.000000
v 0.000000 0.000000 50.000000
v 0.000000 -10.000000 50.000000
v -20.000000 -10.000000 60.000000
v -10.000000 -10.000000 60.000000
v -10.000000 0.000000 60.000000
v -20.000000 0.000000 60.000000
v -20.000000 -10.000000 50.000000
v -20.000000 0.000000 50.000000
v -10.000000 0.000000 50.000000
v -10.000000 -10.000000 50.000000
v -20.000000 -10.000000 70.000000
v -10.000000 -10.000000 70.000000
v -10.000000 0.000000 70.000000
v -20.000000 0.000000 70.000000
v -20.000000 -10.000000 60.000000
v -20.000000 0.000000 60.000000
v -10.000000 0.000000 60.000000
v -10.000000 -10.000000 60.000000
v -20.000000 0.000000 70.000000
v -10.000000 0.000000 70.000000
v -10.000000 10.000000 70.000000
v -20.000000 10.000000 70.000000
v -20.000000 0.000000 60.000000
v -20.000000 10.000000 60.000000
v -10.000000 10.000000 60.000000
v -10.000000 0.000000 60.000000
v -20.000000 0.000000 80.000000
v -10.000000 0.000000 80.000000
v -10.000000 10.000000 80.000000
v -20.000000 10.000000 80.000000
v -20.000000 0.000000 70.000000
v -20.000000 10.000000 70.000000
v -10.000000 10.000000 70.000000
v -10.000000 0.000000 70.000000
v -20.000000 10.000000 80.000000
v -10.000000 10.000000 80.000000
v -10.000000 20.000000 80.000000
v -20.000000 20.000000 80.000000
v -20.000000 10.000000 70.000000
v -20.000000 20.000000 70.000000
v -10.000000 20.000000 70.000000
v -10.000000 10.000000 70.000000
v -20.000000 20.000000 80.000000
v -10.000000 20.000000 80.000000
v -10.000000 30.000000 80.000000
v -20.000000 30.000000 80.000000
v -20.000000 20.000000 70.000000
v -20.000000 30.000000 70.000000
v -10.000000 30.000000 70.000000
v -10.000000 20.000000 70.000000
v -20.000000 20.000000 70.000000
v -10.000000 20.000000 70.000000
v -10.000000 30.000000 70.000000
v -20.000000 30.000000 70.000000
v -20.000000 20.000000 60.000000
v -20.000000 30.000000 60.000000
v -10.000000 30.000000 60.000000
v -10.000000 20.000000 60.000000
v 0.000000 0.000000 0.000000
v 10.000000 0.000000 0.000000
v 10.000000 10.000000 0.000000
v 0.000000 10.000000 0.000000
v 0.000000 0.000000 -10.000000
v 0.000000 10.000000 -10.000000
v 10.000000 10.000000 -10.000000
v 10.000000 0.000000 -10.000000
v 0.000000 0.000000 -10.000000
v 10.000000 0.000000 -10.000000
v 10.000000 10.000000 -10.000000
v 0.000000 10.000000 -10.000000
v 0.000000 0.000000 -20.000000
v 0.000000 10.000000 -20.000000
v 10.000000 10.000000 -20.000000
v 10.000000 0.000000 -20.000000
v -10.000000 0.000000 -10.000000
v 0.000000 0.000000 -10.000000
v 0.000000 10.000000 -10.000000
v -10.000000 10.000000 -10.000000
v -10.000000 0.000000 -20.000000
v -10.000000 10.000000 -20.000000
v 0.000000 10.000000 -20.000000
v 0.000000 0.000000 -20.000000
v -10.000000 10.000000 -10.000000
v 0.000000 10.000000 -10.000000
v 0.000000 20.000000 -10.000000
v -10.000000 20.000000 -10.000000
v -10.000000 10.000000 -20.000000
v -10.000000 20.000000 -20.000000
v 0.000000 20.000000 -20.000000
v 0.000000 10.000000 -20.000000
v 0.000000 10.000000 -10.000000
v 10.000000 10.000000 -10.000000
v 10.000000 20.000000 -10.000000
v 0.000000 20.000000 -10.000000
v 0.000000 10.000000 -20.000000
v 0.000000 20.000000 -20.000000
v 10.000000 20.000000 -20.000000
v 10.000000 10.000000 -20.000000
v 0.000000 10.000000 -20.000000
v 10.000000 10.000000 -20.000000
v 10.000000 20.000000 -20.000000
v 0.000000 20.000000 -20.000000
v 0.000000 10.000000 -30.000000
v 0.000000 20.000000 -30.000000
v 10.000000 20.000000 -30.000000
v 10.000000 10.000000 -30.000000
v 10.000000 10.000000 -20.000000
v 20.000000 10.000000 -20.000000
v 20.000000 20.000000 -20.000000
v 10.000000 20.000000 -20.000000
v 10.000000 10.000000 -30.000000
v 10.000000 20.000000 -30.000000
v 20.000000 20.000000 -30.000000
v 20.000000 10.000000 -30.000000
v 20.000000 10.000000 -20.000000
v 30.000000 10.000000 -20.000000
v 30.000000 20.000000 -20.000000
v 20.000000 20.000000 -20.000000
v 20.000000 10.000000 -30.000000
v 20.000000 20.000000 -30.000000
v 30.000000 20.000000 -30.000000
v 30.000000 10.000000 -30.000000
v 30.000000 10.000000 -20.000000
v 40.000000 10.000000 -20.000000
v 40.000000 20.000000 -20.000000
v 30.000000 20.000000 -20.000000
v 30.000000 10.000000 -30.000000
v 30.000000 20.000000 -30.000000
v 40.000000 20.000000 -30.000000
v 40.000000 10.000000 -30.000000
v 40.000000 10.000000 -20.000000
v 50.000000 10.000000 -20.000000
v 50.000000 20.000000 -20.000000
v 40.000000 20.000000 -20.000000
v 40.000000 10.000000 -30.000000
v 40.000000 20.000000 -30.000000
v 50.000000 20.000000 -30.000000
v 50.000000 10.000000 -30.000000
v 40.000000 0.000000 -20.000000
v 50.000000 0.000000 -20.000000
v 50.000000 10.000000 -20.000000
v 40.000000 10.000000 -20.000000
v 40.000000 0.000000 -30.000000
v 40.000000 10.000000 -30.000000
v 50.000000 10.000000 -30.000000
v 50.000000 0.000000 -30.000000
v 40.000000 -10.000000 -20.000000
v 50.000000 -10.000000 -20.000000
v 50.000000 0.000000 -20.000000
v 40.000000 0.000000 -20.000000
v 40.000000 -10.000000 -30.000000
v 40.000000 0.000000 -30.000000
v 50.000000 0.000000 -30.000000
v 50.000000 -10.000000 -30.000000
v 50.000000 -10.000000 -20.000000
v 60.000000 -10.000000 -20.000000
v 60.000000 0.000000 -20.000000
v 50.000000 0.000000 -20.000000
v 50.000000 -10.000000 -30.000000
v 50.000000 0.000000 -30.000000
v 60.000000 0.000000 -30.000000
v 60.000000 -10.000000 -30.000000
v 60.000000 -10.000000 -20.000000
v 70.000000 -10.000000 -20.000000
v 70.000000 0.000000 -20.000000
v 60.000000 0.000000 -20.000000
v 60.000000 -10.000000 -30.000000
v 60.000000 0.000000 -30.000000
v 70.000000 0.000000 -30.000000
v 70.000000 -10.000000 -30.000000
v 70.000000 -10.000000 -20.000000
v 80.000000 -10.000000 -20.000000
v 80.000000 0.000000 -20.000000
v 70.000000 0.000000 -20.000000
v 70.000000 -10.000000 -30.000000
v 70.000000 0.000000 -30.000000
v 80.000000 0.000000 -30.000000
v 80.000000 -10.000000 -30.000000
v 80.000000 -10.000000 -20.000000
v 90.000000 -10.000000 -20.000000
v 90.000000 0.000000 -20.000000
v 80.000000 0.000000 -20.000000
v 80.000000 -10.000000 -30.000000
v 80.000000 0.000000 -30.000000
v 90.000000 0.000000 -30.000000
v 90.000000 -10.000000 -30.000000
v 80.000000 -10.000000 -10.000000
v 90.000000 -10.000000 -10.000000
v 90.000000 0.000000 -10.000000
v 80.000000 0.000000 -10.000000
v 80.000000 -10.000000 -20.000000
v 80.000000 0.000000 -20.000000
v 90.000000 0.000000 -20.000000
v 90.000000 -10.000000 -20.000000
v 80.000000 -10.000000 0.000000
v 90.000000 -10.000000 0.000000
v 90.000000 0.000000 0.000000
v 80.000000 0.000000 0.000000
v 80.000000 -10.000000 -10.000000
v 80.000000 0.000000 -10.000000
v 90.000000 0.000000 -10.000000
v 90.000000 -10.000000 -10.000000
v 80.000000 -10.000000 10.000000
v 90.000000 -10.000000 10.000000
v 90.000000 0.000000 10.000000
v 80.000000 0.000000 10.000000
v 80.000000 -10.000000 0.000000
v 80.000000 0.000000 0.000000
v 90.000000 0.000000 0.000000
v 90.000000 -10.000000 0.000000
v 80.000000 -20.000000 10.000000
v 90.000000 -20.000000 10.000000
v 90.000000 -10.000000 10.000000
v 80.000000 -10.000000 10.000000
v 80.000000 -20.000000 0.000000
v 80.000000 -10.000000 0.000000
v 90.000000 -10.000000 0.000000
v 90.000000 -20.000000 0.000000
v 80.000000 -30.000000 10.000000
v 90.000000 -30.000000 10.000000
v 90.000000 -20.000000 10.000000
v 80.000000 -20.000000 10.000000
v 80.000000 -30.000000 0.000000
v 80.000000 -20.000000 0.000000
v 90.000000 -20.000000 0.000000
v 90.000000 -30.000000 0.000000
v 80.000000 -40.000000 10.000000
v 90.000000 -40.000000 10.000000
v 90.000000 -30.000000 10.000000
v 80.000000 -30.000000 10.000000
v 80.000000 -40.000000 0.000000
v 80.000000 -30.000000 0.000000
v 90.000000 -30.000000 0.000000
v 90.000000 -40.000000 0.000000
v 80.000000 -50.000000 10.000000
v 90.000000 -50.000000 10.000000
v 90.000000 -40.000000 10.000000
v 80.000000 -40.000000 10.000000
v 80.000000 -50.000000 0.000000
v 80.000000 -40.000000 0.000000
v 90.000000 -40.000000 0.000000
v 90.000000 -50.000000 0.000000
v 80.000000 -50.000000 20.000000
v 90.000000 -50.000000 20.000000
v 90.000000 -40.000000 20.000000
v 80.000000 -40.000000 20.000000
v 80.000000 -50.000000 10.000000
v 80.000000 -40.000000 10.000000
v 90.000000 -40.000000 10.000000
v 90.000000 -50.000000 10.000000
v 10.000000 0.000000 10.000000
v 20.000000 0.000000 10.000000
v 20.000000 10.000000 10.000000
v 10.000000 10.000000 10.000000
v 10.000000 0.000000 0.000000
v 10.000000 10.000000 0.000000
v 20.000000 10.000000 0.000000
v 20.000000 0.000000 0.000000
v 20.000000 0.000000 10.000000
v 30.000000 0.000000 10.000000
v 30.000000 10.000000 10.000000
v 20.000000 10.000000 10.000000
v 20.000000 0.000000 0.000000
v 20.000000 10.000000 0.000000
v 30.000000 10.000000 0.000000
v 30.000000 0.000000 0.000000
v 20.000000 -10.000000 10.000000
v 30.000000 -10.000000 10.000000
v 30.000000 0.000000 10.000000
v 20.000000 0.000000 10.000000
v 20.000000 -10.000000 0.000000
v 20.000000 0.000000 0.000000
v 30.000000 0.000000 0.000000
v 30.000000 -10.000000 0.000000
v 20.000000 -20.000000 10.000000
v 30.000000 -20.000000 10.000000
v 30.000000 -10.000000 10.000000
v 20.000000 -10.000000 10.000000
v 20.000000 -20.000000 0.000000
v 20.000000 -10.000000 0.000000
v 30.000000 -10.000000 0.000000
v 30.000000 -20.000000 0.000000
v 20.000000 -20.000000 0.000000
v 30.000000 -20.000000 0.000000
v 30.000000 -10.000000 0.000000
v 20.000000 -10.000000 0.000000
v 20.000000 -20.000000 -10.000000
v 20.000000 -10.000000 -10.000000
v 30.000000 -10.000000 -10.000000
v 30.000000 -20.000000 -10.000000
v 30.000000 -20.000000 0.000000
v 40.000000 -20.000000 0.000000
v 40.000000 -10.000000 0.000000
v 30.000000 -10.000000 0.000000
v 30.000000 -20.000000 -10.000000
v 30.000000 -10.000000 -10.000000
v 40.000000 -10.000000 -10.000000
v 40.000000 -20.000000 -10.000000
v 30.000000 -10.000000 0.000000
v 40.000000 -10.000000 0.000000
v 40.000000 0.000000 0.000000
v 30.000000 0.000000 0.000000
v 30.000000 -10.000000 -10.000000
v 30.000000 0.000000 -10.000000
v 40.000000 0.000000 -10.000000
v 40.000000 -10.000000 -10.000000
v 20.000000 -10.000000 0.000000
v 30.000000 -10.000000 0.000000
v 30.000000 0.000000 0.000000
v 20.000000 0.000000 0.000000
v 20.000000 -10.000000 -10.000000
v 20.000000 0.000000 -10.000000
v 30.000000 0.000000 -10.000000
v 30.000000 -10.000000 -10.000000
v 10.000000 -10.000000 0.000000
v 20.000000 -10.000000 0.000000
v 20.000000 0.000000 0.000000
v 10.000000 0.000000 0.000000
v 10.000000 -10.000000 -10.000000
v 10.000000 0.000000 -10.000000
v 20.000000 0.000000 -10.000000
v 20.000000 -10.000000 -10.000000
v 10.000000 0.000000 0.000000
v 20.000000 0.000000 0.000000
v 20.000000 10.000000 0.000000
v 10.000000 10.000000 0.000000
v 10.000000 0.000000 -10.000000
v 10.000000 10.000000 -10.000000
v 20.000000 10.000000 -10.000000
v 20.000000 0.000000 -10.000000
v 20.000000 0.000000 0.000000
v 30.000000 0.000000 0.000000
v 30.000000 10.000000 0.000000
v 20.000000 10.000000 0.000000
v 20.000000 0.000000 -10.000000
v 20.000000 10.000000 -10.000000
v 30.000000 10.000000 -10.000000
v 30.000000 0.000000 -10.000000
v 20.000000 0.000000 -10.000000
v 30.000000 0.000000 -10.000000
v 30.000000 10.000000 -10.000000
v 20.000000 10.000000 -10.000000
v 20.000000 0.000000 -20.000000
v 20.000000 10.000000 -20.000000
v 30.000000 10.000000 -20.000000
v 30.000000 0.000000 -20.000000
v 30.000000 0.000000 -10.000000
v 40.000000 0.000000 -10.000000
v 40.000000 10.000000 -10.000000
v 30.000000 10.000000 -10.000000
v 30.000000 0.000000 -20.000000
v 30.000000 10.000000 -20.000000
v 40.000000 10.000000 -20.000000
v 40.000000 0.000000 -20.000000
v 30.000000 -10.000000 -10.000000
v 40.000000 -10.000000 -10.000000
v 40.000000 0.000000 -10.000000
v 30.000000 0.000000 -10.000000
v 30.000000 -10.000000 -20.000000
v 30.000000 0.000000 -20.000000
v 40.000000 0.000000 -20.000000
v 40.000000 -10.000000 -20.000000
v 30.000000 -10.000000 -20.000000
v 40.000000 -10.000000 -20.000000
v 40.000000 0.000000 -20.000000
v 30.000000 0.000000 -20.000000
v 30.000000 -10.000000 -30.000000
v 30.000000 0.000000 -30.000000
v 40.000000 0.000000 -30.000000
v 40.000000 -10.000000 -30.000000
v 30.000000 -10.000000 -30.000000
v 40.000000 -10.000000 -30.000000
v 40.000000 0.000000 -30.000000
v 30.000000 0.000000 -30.000000
v 30.000000 -10.000000 -40.000000
v 30.000000 0.000000 -40.000000
v 40.000000 0.000000 -40.000000
v 40.000000 -10.000000 -40.000000
v 30.000000 -10.000000 -40.000000
v 40.000000 -10.000000 -40.000000
v 40.000000 0.000000 -40.000000
v 30.000000 0.000000 -40.000000
v 30.000000 -10.000000 -50.000000
v 30.000000 0.000000 -50.000000
v 40.000000 0.000000 -50.000000
v 40.000000 -10.000000 -50.000000
v 40.000000 -10.000000 -40.000000
v 50.000000 -10.000000 -40.000000
v 50.000000 0.000000 -40.000000
v 40.000000 0.000000 -40.000000
v 40.000000 -10.000000 -50.000000
v 40.000000 0.000000 -50.000000
v 50.000000 0.000000 -50.000000
v 50.000000 -10.000000 -50.000000
v 40.000000 0.000000 -40.000000
v 50.000000 0.000000 -40.000000
v 50.000000 10.000000 -40.000000
v 40.000000 10.000000 -40.000000
v 40.000000 0.000000 -50.000000
v 40.000000 10.000000 -50.000000
v 50.000000 10.000000 -50.000000
v 50.000000 0.000000 -50.000000
v 50.000000 0.000000 -40.000000
v 60.000000 0.000000 -40.000000
v 60.000000 10.000000 -40.000000
v 50.000000 10.000000 -40.000000
v 50.000000 0.000000 -50.000000
v 50.000000 10.000000 -50.000000
v 60.000000 10.000000 -50.000000
v 60.000000 0.000000 -50.000000
v 50.000000 0.000000 -50.000000
v 60.000000 0.000000 -50.000000
v 60.000000 10.000000 -50.000000
v 50.000000 10.000000 -50.000000
v 50.000000 0.000000 -60.000000
v 50.000000 10.000000 -60.000000
v 60.000000 10.000000 -60.000000
v 60.000000 0.000000 -60.000000
v 60.000000 0.000000 -50.000000
v 70.000000 0.000000 -50.000000
v 70.000000 10.000000 -50.000000
v 60.000000 10.000000 -50.000000
v 60.000000 0.000000 -60.000000
v 60.000000 10.000000 -60.000000
v 70.000000 10.000000 -60.000000
v 70.000000 0.000000 -60.000000
v 60.000000 0.000000 -60.000000
v 70.000000 0.000000 -60.000000
v 70.000000 10.000000 -60.000000
v 60.000000 10.000000 -60.000000
v 60.000000 0.000000 -70.000000
v 60.000000 10.000000 -70.000000
v 70.000000 10.000000 -70.000000
v 70.000000 0.000000 -70.000000
v 60.000000 0.000000 -70.000000
v 70.000000 0.000000 -70.000000
v 70.000000 10.000000 -70.000000
v 60.000000 10.000000 -70.000000
v 60.000000 0.000000 -80.000000
v 60.000000 10.000000 -80.000000
v 70.000000 10.000000 -80.000000
v 70.000000 0.000000 -80.000000
v 20.000000 10.000000 -70.000000
v 30.000000 10.000000 -70.000000
v 30.000000 20.000000 -70.000000
v 20.000000 20.000000 -70.000000
v 20.000000 10.000000 -80.000000
v 20.000000 20.000000 -80.000000
v 30.000000 20.000000 -80.000000
v 30.000000 10.000000 -80.000000
v 20.000000 10.000000 -80.000000
v 30.000000 10.000000 -80.000000
v 30.000000 20.000000 -80.000000
v 20.000000 20.000000 -80.000000
v 20.000000 10.000000 -90.000000
v 20.000000 20.000000 -90.000000
v 30.000000 20.000000 -90.000000
v 30.000000 10.000000 -90.000000
v 0.000000 10.000000 50.000000
v 10.000000 10.000000 50.000000
v 10.000000 20.000000 50.000000
v 0.000000 20.000000 50.000000
v 0.000000 10.000000 40.000000
v 0.000000 20.000000 40.000000
v 10.000000 20.000000 40.000000
v 10.000000 10.000000 40.000000

# Faces
f 1 2 3
f 1 3 4
f 5 6 7
f 5 7 8
f 4 3 7
f 4 7 6
f 1 8 2
f 1 5 8
f 2 8 7
f 2 7 3
f 1 6 5
f 1 4 6
f 9 10 11
f 9 11 12
f 13 14 15
f 13 15 16
f 12 11 15
f 12 15 14
f 9 16 10
f 9 13 16
f 10 16 15
f 10 15 11
f 9 14 13
f 9 12 14
f 17 18 19
f 17 19 20
f 21 22 23
f 21 23 24
f 20 19 23
f 20 23 22
f 17 24 18
f 17 21 24
f 18 24 23
f 18 23 19
f 17 22 21
f 17 20 22
f 25 26 27
f 25 27 28
f 29 30 31
f 29 31 32
f 28 27 31
f 28 31 30
f 25 32 26
f 25 29 32
f 26 32 31
f 26 31 27
f 25 30 29
f 25 28 30
f 33 34 35
f 33 35 36
f 37 38 39
f 37 39 40
f 36 35 39
f 36 39 38
f 33 40 34
f 33 37 40
f 34 40 39
f 34 39 35
f 33 38 37
f 33 36 38
f 41 42 43
f 41 43 44
f 45 46 47
f 45 47 48
f 44 43 47
f 44 47 46
f 41 48 42
f 41 45 48
f 42 48 47
f 42 47 43
f 41 46 45
f 41 44 46
f 49 50 51
f 49 51 52
f 53 54 55
f 53 55 56
f 52 51 55
f 52 55 54
f 49 56 50
f 49 53 56
f 50 56 55
f 50 55 51
f 49 54 53
f 49 52 54
f 57 58 59
f 57 59 60
f 61 62 63
f 61 63 64
f 60 59 63
f 60 63 62
f 57 64 58
f 57 61 64
f 58 64 63
f 58 63 59
f 57 62 61
f 57 60 62
f 65 66 67
f 65 67 68
f 69 70 71
f 69 71 72
f 68 67 71
f 68 71 70
f 65 72 66
f 65 69 72
f 66 72 71
f 66 71 67
f 65 70 69
f 65 68 70
f 73 74 75
f 73 75 76
f 77 78 79
f 77 79 80
f 76 75 79
f 76 79 78
f 73 80 74
f 73 77 80
f 74 80 79
f 74 79 75
f 73 78 77
f 73 76 78
f 81 82 83
f 81 83 84
f 85 86 87
f 85 87 88
f 84 83 87
f 84 87 86
f 81 88 82
f 81 85 88
f 82 88 87
f 82 87 83
f 81 86 85
f 81 84 86
f 89 90 91
f 89 91 92
f 93 94 95
f 93 95 96
f 92 91 95
f 92 95 94
f 89 96 90
f 89 93 96
f 90 96 95
f 90 95 91
f 89 94 93
f 89 92 94
f 97 98 99
f 97 99 100
f 101 102 103
f 101 103 104
f 100 99 103
f 100 103 102
f 97 104 98
f 97 101 104
f 98 104 103
f 98 103 99
f 97 102 101
f 97 100 102
f 105 106 107
f 105 107 108
f 109 110 111
f 109 111 112
f 108 107 111
f 108 111 110
f 105 112 106
f 105 109 112
f 106 112 111
f 106 111 107
f 105 110 109
f 105 108 110
f 113 114 115
f 113 115 116
f 117 118 119
f 117 119 120
f 116 115 119
f 116 119 118
f 113 120 114
f 113 117 120
f 114 120 119
f 114 119 115
f 113 118 117
f 113 116 118
f 121 122 123
f 121 123 124
f 125 126 127
f 125 127 128
f 124 123 127
f 124 127 126
f 121 128 122
f 121 125 128
f 122 128 127
f 122 127 123
f 121 126 125
f 121 124 126
f 129 130 131
f 129 131 132
f 133 134 135
f 133 135 136
f 132 131 135
f 132 135 134
f 129 136 130
f 129 133 136
f 130 136 135
f 130 135 131
f 129 134 133
f 129 132 134
f 137 138 139
f 137 139 140
f 141 142 143
f 141 143 144
f 140 139 143
f 140 143 142
f 137 144 138
f 137 141 144
f 138 144 143
f 138 143 139
f 137 142 141
f 137 140 142
f 145 146 147
f 145 147 148
f 149 150 151
f 149 151 152
f 148 147 151
f 148 151 150
f 145 152 146
f 145 149 152
f 146 152 151
f 146 151 147
f 145 150 149
f 145 148 150
f 153 154 155
f 153 155 156
f 157 158 159
f 157 159 160
f 156 155 159
f 156 159 158
f 153 160 154
f 153 157 160
f 154 160 159
f 154 159 155
f 153 158 157
f 153 156 158
f 161 162 163
f 161 163 164
f 165 166 167
f 165 167 168
f 164 163 167
f 164 167 166
f 161 168 162
f 161 165 168
f 162 168 167
f 162 167 163
f 161 166 165
f 161 164 166
f 169 170 171
f 169 171 172
f 173 174 175
f 173 175 176
f 172 171 175
f 172 175 174
f 169 176 170
f 169 173 176
f 170 176 175
f 170 175 171
f 169 174 173
f 169 172 174
f 177 178 179
f 177 179 180
f 181 182 183
f 181 183 184
f 180 179 183
f 180 183 182
f 177 184 178
f 177 181 184
f 178 184 183
f 178 183 179
f 177 182 181
f 177 180 182
f 185 186 187
f 185 187 188
f 189 190 191
f 189 191 192
f 188 187 191
f 188 191 190
f 185 192 186
f 185 189 192
f 186 192 191
f 186 191 187
f 185 190 189
f 185 188 190
f 193 194 195
f 193 195 196
f 197 198 199
f 197 199 200
f 196 195 199
f 196 199 198
f 193 200 194
f 193 197 200
f 194 200 199
f 194 199 195
f 193 198 197
f 193 196 198
f 201 202 203
f 201 203 204
f 205 206 207
f 205 207 208
f 204 203 207
f 204 207 206
f 201 208 202
f 201 205 208
f 202 208 207
f 202 207 203
f 201 206 205
f 201 204 206
f 209 210 211
f 209 211 212
f 213 214 215
f 213 215 216
f 212 211 215
f 212 215 214
f 209 216 210
f 209 213 216
f 210 216 215
f 210 215 211
f 209 214 213
f 209 212 214
f 217 218 219
f 217 219 220
f 221 222 223
f 221 223 224
f 220 219 223
f 220 223 222
f 217 224 218
f 217 221 224
f 218 224 223
f 218 223 219
f 217 222 221
f 217 220 222
f 225 226 227
f 225 227 228
f 229 230 231
f 229 231 232
f 228 227 231
f 228 231 230
f 225 232 226
f 225 229 232
f 226 232 231
f 226 231 227
f 225 230 229
f 225 228 230
f 233 234 235
f 233 235 236
f 237 238 239
f 237 239 240
f 236 235 239
f 236 239 238
f 233 240 234
f 233 237 240
f 234 240 239
f 234 239 235
f 233 238 237
f 233 236 238
f 241 242 243
f 241 243 244
f 245 246 247
f 245 247 248
f 244 243 247
f 244 247 246
f 241 248 242
f 241 245 248
f 242 248 247
f 242 247 243
f 241 246 245
f 241 244 246
f 249 250 251
f 249 251 252
f 253 254 255
f 253 255 256
f 252 251 255
f 252 255 254
f 249 256 250
f 249 253 256
f 250 256 255
f 250 255 251
f 249 254 253
f 249 252 254
f 257 258 259
f 257 259 260
f 261 262 263
f 261 263 264
f 260 259 263
f 260 263 262
f 257 264 258
f 257 261 264
f 258 264 263
f 258 263 259
f 257 262 261
f 257 260 262
f 265 266 267
f 265 267 268
f 269 270 271
f 269 271 272
f 268 267 271
f 268 271 270
f 265 272 266
f 265 269 272
f 266 272 271
f 266 271 267
f 265 270 269
f 265 268 270
f 273 274 275
f 273 275 276
f 277 278 279
f 277 279 280
f 276 275 279
f 276 279 278
f 273 280 274
f 273 277 280
f 274 280 279
f 274 279 275
f 273 278 277
f 273 276 278
f 281 282 283
f 281 283 284
f 285 286 287
f 285 287 288
f 284 283 287
f 284 287 286
f 281 288 282
f 281 285 288
f 282 288 287
f 282 287 283
f 281 286 285
f 281 284 286
f 289 290 291
f 289 291 292
f 293 294 295
f 293 295 296
f 292 291 295
f 292 295 294
f 289 296 290
f 289 293 296
f 290 296 295
f 290 295 291
f 289 294 293
f 289 292 294
f 297 298 299
f 297 299 300
f 301 302 303
f 301 303 304
f 300 299 303
f 300 303 302
f 297 304 298
f 297 301 304
f 298 304 303
f 298 303 299
f 297 302 301
f 297 300 302
f 305 306 307
f 305 307 308
f 309 310 311
f 309 311 312
f 308 307 311
f 308 311 310
f 305 312 306
f 305 309 312
f 306 312 311
f 306 311 307
f 305 310 309
f 305 308 310
f 313 314 315
f 313 315 316
f 317 318 319
f 317 319 320
f 316 315 319
f 316 319 318
f 313 320 314
f 313 317 320
f 314 320 319
f 314 319 315
f 313 318 317
f 313 316 318
f 321 322 323
f 321 323 324
f 325 326 327
f 325 327 328
f 324 323 327
f 324 327 326
f 321 328 322
f 321 325 328
f 322 328 327
f 322 327 323
f 321 326 325
f 321 324 326
f 329 330 331
f 329 331 332
f 333 334 335
f 333 335 336
f 332 331 335
f 332 335 334
f 329 336 330
f 329 333 336
f 330 336 335
f 330 335 331
f 329 334 333
f 329 332 334
f 337 338 339
f 337 339 340
f 341 342 343
f 341 343 344
f 340 339 343
f 340 343 342
f 337 344 338
f 337 341 344
f 338 344 343
f 338 343 339
f 337 342 341
f 337 340 342
f 345 346 347
f 345 347 348
f 349 350 351
f 349 351 352
f 348 347 351
f 348 351 350
f 345 352 346
f 345 349 352
f 346 352 351
f 346 351 347
f 345 350 349
f 345 348 350
f 353 354 355
f 353 355 356
f 357 358 359
f 357 359 360
f 356 355 359
f 356 359 358
f 353 360 354
f 353 357 360
f 354 360 359
f 354 359 355
f 353 358 357
f 353 356 358
f 361 362 363
f 361 363 364
f 365 366 367
f 365 367 368
f 364 363 367
f 364 367 366
f 361 368 362
f 361 365 368
f 362 368 367
f 362 367 363
f 361 366 365
f 361 364 366
f 369 370 371
f 369 371 372
f 373 374 375
f 373 375 376
f 372 371 375
f 372 375 374
f 369 376 370
f 369 373 376
f 370 376 375
f 370 375 371
f 369 374 373
f 369 372 374
f 377 378 379
f 377 379 380
f 381 382 383
f 381 383 384
f 380 379 383
f 380 383 382
f 377 384 378
f 377 381 384
f 378 384 383
f 378 383 379
f 377 382 381
f 377 380 382
f 385 386 387
f 385 387 388
f 389 390 391
f 389 391 392
f 388 387 391
f 388 391 390
f 385 392 386
f 385 389 392
f 386 392 391
f 386 391 387
f 385 390 389
f 385 388 390
f 393 394 395
f 393 395 396
f 397 398 399
f 397 399 400
f 396 395 399
f 396 399 398
f 393 400 394
f 393 397 400
f 394 400 399
f 394 399 395
f 393 398 397
f 393 396 398
f 401 402 403
f 401 403 404
f 405 406 407
f 405 407 408
f 404 403 407
f 404 407 406
f 401 408 402
f 401 405 408
f 402 408 407
f 402 407 403
f 401 406 405
f 401 404 406
f 409 410 411
f 409 411 412
f 413 414 415
f 413 415 416
f 412 411 415
f 412 415 414
f 409 416 410
f 409 413 416
f 410 416 415
f 410 415 411
f 409 414 413
f 409 412 414
f 417 418 419
f 417 419 420
f 421 422 423
f 421 423 424
f 420 419 423
f 420 423 422
f 417 424 418
f 417 421 424
f 418 424 423
f 418 423 419
f 417 422 421
f 417 420 422
f 425 426 427
f 425 427 428
f 429 430 431
f 429 431 432
f 428 427 431
f 428 431 430
f 425 432 426
f 425 429 432
f 426 432 431
f 426 431 427
f 425 430 429
f 425 428 430
f 433 434 435
f 433 435 436
f 437 438 439
f 437 439 440
f 436 435 439
f 436 439 438
f 433 440 434
f 433 437 440
f 434 440 439
f 434 439 435
f 433 438 437
f 433 436 438
f 441 442 443
f 441 443 444
f 445 446 447
f 445 447 448
f 444 443 447
f 444 447 446
f 441 448 442
f 441 445 448
f 442 448 447
f 442 447 443
f 441 446 445
f 441 444 446
f 449 450 451
f 449 451 452
f 453 454 455
f 453 455 456
f 452 451 455
f 452 455 454
f 449 456 450
f 449 453 456
f 450 456 455
f 450 455 451
f 449 454 453
f 449 452 454
f 457 458 459
f 457 459 460
f 461 462 463
f 461 463 464
f 460 459 463
f 460 463 462
f 457 464 458
f 457 461 464
f 458 464 463
f 458 463 459
f 457 462 461
f 457 460 462
f 465 466 467
f 465 467 468
f 469 470 471
f 469 471 472
f 468 467 471
f 468 471 470
f 465 472 466
f 465 469 472
f 466 472 471
f 466 471 467
f 465 470 469
f 465 468 470
f 473 474 475
f 473 475 476
f 477 478 479
f 477 479 480
f 476 475 479
f 476 479 478
f 473 480 474
f 473 477 480
f 474 480 479
f 474 479 475
f 473 478 477
f 473 476 478
f 481 482 483
f 481 483 484
f 485 486 487
f 485 487 488
f 484 483 487
f 484 487 486
f 481 488 482
f 481 485 488
f 482 488 487
f 482 487 483
f 481 486 485
f 481 484 486
f 489 490 491
f 489 491 492
f 493 494 495
f 493 495 496
f 492 491 495
f 492 495 494
f 489 496 490
f 489 493 496
f 490 496 495
f 490 495 491
f 489 494 493
f 489 492 494
f 497 498 499
f 497 499 500
f 501 502 503
f 501 503 504
f 500 499 503
f 500 503 502
f 497 504 498
f 497 501 504
f 498 504 503
f 498 503 499
f 497 502 501
f 497 500 502
f 505 506 507
f 505 507 508
f 509 510 511
f 509 511 512
f 508 507 511
f 508 511 510
f 505 512 506
f 505 509 512
f 506 512 511
f 506 511 507
f 505 510 509
f 505 508 510
f 513 514 515
f 513 515 516
f 517 518 519
f 517 519 520
f 516 515 519
f 516 519 518
f 513 520 514
f 513 517 520
f 514 520 519
f 514 519 515
f 513 518 517
f 513 516 518
f 521 522 523
f 521 523 524
f 525 526 527
f 525 527 528
f 524 523 527
f 524 527 526
f 521 528 522
f 521 525 528
f 522 528 527
f 522 527 523
f 521 526 525
f 521 524 526
f 529 530 531
f 529 531 532
f 533 534 535
f 533 535 536
f 532 531 535
f 532 535 534
f 529 536 530
f 529 533 536
f 530 536 535
f 530 535 531
f 529 534 533
f 529 532 534
f 537 538 539
f 537 539 540
f 541 542 543
f 541 543 544
f 540 539 543
f 540 543 542
f 537 544 538
f 537 541 544
f 538 544 543
f 538 543 539
f 537 542 541
f 537 540 542
f 545 546 547
f 545 547 548
f 549 550 551
f 549 551 552
f 548 547 551
f 548 551 550
f 545 552 546
f 545 549 552
f 546 552 551
f 546 551 547
f 545 550 549
f 545 548 550
f 553 554 555
f 553 555 556
f 557 558 559
f 557 559 560
f 556 555 559
f 556 559 558
f 553 560 554
f 553 557 560
f 554 560 559
f 554 559 555
f 553 558 557
f 553 556 558
f 561 562 563
f 561 563 564
f 565 566 567
f 565 567 568
f 564 563 567
f 564 567 566
f 561 568 562
f 561 565 568
f 562 568 567
f 562 567 563
f 561 566 565
f 561 564 566
f 569 570 571
f 569 571 572
f 573 574 575
f 573 575 576
f 572 571 575
f 572 575 574
f 569 576 570
f 569 573 576
f 570 576 575
f 570 575 571
f 569 574 573
f 569 572 574
f 577 578 579
f 577 579 580
f 581 582 583
f 581 583 584
f 580 579 583
f 580 583 582
f 577 584 578
f 577 581 584
f 578 584 583
f 578 583 579
f 577 582 581
f 577 580 582
f 585 586 587
f 585 587 588
f 589 590 591
f 589 591 592
f 588 587 591
f 588 591 590
f 585 592 586
f 585 589 592
f 586 592 591
f 586 591 587
f 585 590 589
f 585 588 590
f 593 594 595
f 593 595 596
f 597 598 599
f 597 599 600
f 596 595 599
f 596 599 598
f 593 600 594
f 593 597 600
f 594 600 599
f 594 599 595
f 593 598 597
f 593 596 598
f 601 602 603
f 601 603 604
f 605 606 607
f 605 607 608
f 604 603 607
f 604 607 606
f 601 608 602
f 601 605 608
f 602 608 607
f 602 607 603
f 601 606 605
f 601 604 606
f 609 610 611
f 609 611 612
f 613 614 615
f 613 615 616
f 612 611 615
f 612 615 614
f 609 616 610
f 609 613 616
f 610 616 615
f 610 615 611
f 609 614 613
f 609 612 614
f 617 618 619
f 617 619 620
f 621 622 623
f 621 623 624
f 620 619 623
f 620 623 622
f 617 624 618
f 617 621 624
f 618 624 623
f 618 623 619
f 617 622 621
f 617 620 622
f 625 626 627
f 625 627 628
f 629 630 631
f 629 631 632
f 628 627 631
f 628 631 630
f 625 632 626
f 625 629 632
f 626 632 631
f 626 631 627
f 625 630 629
f 625 628 630
f 633 634 635
f 633 635 636
f 637 638 639
f 637 639 640
f 636 635 639
f 636 639 638
f 633 640 634
f 633 637 640
f 634 640 639
f 634 639 635
f 633 638 637
f 633 636 638
f 641 642 643
f 641 643 644
f 645 646 647
f 645 647 648
f 644 643 647
f 644 647 646
f 641 648 642
f 641 645 648
f 642 648 647
f 642 647 643
f 641 646 645
f 641 644 646
f 649 650 651
f 649 651 652
f 653 654 655
f 653 655 656
f 652 651 655
f 652 655 654
f 649 656 650
f 649 653 656
f 650 656 655
f 650 655 651
f 649 654 653
f 649 652 654
f 657 658 659
f 657 659 660
f 661 662 663
f 661 663 664
f 660 659 663
f 660 663 662
f 657 664 658
f 657 661 664
f 658 664 663
f 658 663 659
f 657 662 661
f 657 660 662
f 665 666 667
f 665 667 668
f 669 670 671
f 669 671 672
f 668 667 671
f 668 671 670
f 665 672 666
f 665 669 672
f 666 672 671
f 666 671 667
f 665 670 669
f 665 668 670
f 673 674 675
f 673 675 676
f 677 678 679
f 677 679 680
f 676 675 679
f 676 679 678
f 673 680 674
f 673 677 680
f 674 680 679
f 674 679 675
f 673 678 677
f 673 676 678
f 681 682 683
f 681 683 684
f 685 686 687
f 685 687 688
f 684 683 687
f 684 687 686
f 681 688 682
f 681 685 688
f 682 688 687
f 682 687 683
f 681 686 685
f 681 684 686
f 689 690 691
f 689 691 692
f 693 694 695
f 693 695 696
f 692 691 695
f 692 695 694
f 689 696 690
f 689 693 696
f 690 696 695
f 690 695 691
f 689 694 693
f 689 692 694
f 697 698 699
f 697 699 700
f 701 702 703
f 701 703 704
f 700 699 703
f 700 703 702
f 697 704 698
f 697 701 704
f 698 704 703
f 698 703 699
f 697 702 701
f 697 700 702
f 705 706 707
f 705 707 708
f 709 710 711
f 709 711 712
f 708 707 711
f 708 711 710
f 705 712 706
f 705 709 712
f 706 712 711
f 706 711 707
f 705 710 709
f 705 708 710
f 713 714 715
f 713 715 716
f 717 718 719
f 717 719 720
f 716 715 719
f 716 719 718
f 713 720 714
f 713 717 720
f 714 720 719
f 714 719 715
f 713 718 717
f 713 716 718
f 721 722 723
f 721 723 724
f 725 726 727
f 725 727 728
f 724 723 727
f 724 727 726
f 721 728 722
f 721 725 728
f 722 728 727
f 722 727 723
f 721 726 725
f 721 724 726
f 729 730 731
f 729 731 732
f 733 734 735
f 733 735 736
f 732 731 735
f 732 735 734
f 729 736 730
f 729 733 736
f 730 736 735
f 730 735 731
f 729 734 733
f 729 732 734
f 737 738 739
f 737 739 740
f 741 742 743
f 741 743 744
f 740 739 743
f 740 743 742
f 737 744 738
f 737 741 744
f 738 744 743
f 738 743 739
f 737 742 741
f 737 740 742
f 745 746 747
f 745 747 748
f 749 750 751
f 749 751 752
f 748 747 751
f 748 751 750
f 745 752 746
f 745 749 752
f 746 752 751
f 746 751 747
f 745 750 749
f 745 748 750
f 753 754 755
f 753 755 756
f 757 758 759
f 757 759 760
f 756 755 759
f 756 759 758
f 753 760 754
f 753 757 760
f 754 760 759
f 754 759 755
f 753 758 757
f 753 756 758
f 761 762 763
f 761 763 764
f 765 766 767
f 765 767 768
f 764 763 767
f 764 767 766
f 761 768 762
f 761 765 768
f 762 768 767
f 762 767 763
f 761 766 765
f 761 764 766
f 769 770 771
f 769 771 772
f 773 774 775
f 773 775 776
f 772 771 775
f 772 775 774
f 769 776 770
f 769 773 776
f 770 776 775
f 770 775 771
f 769 774 773
f 769 772 774
f 777 778 779
f 777 779 780
f 781 782 783
f 781 783 784
f 780 779 783
f 780 783 782
f 777 784 778
f 777 781 784
f 778 784 783
f 778 783 779
f 777 782 781
f 777 780 782
f 785 786 787
f 785 787 788
f 789 790 791
f 789 791 792
f 788 787 791
f 788 791 790
f 785 792 786
f 785 789 792
f 786 792 791
f 786 791 787
f 785 790 789
f 785 788 790
f 793 794 795
f 793 795 796
f 797 798 799
f 797 799 800
f 796 795 799
f 796 799 798
f 793 800 794
f 793 797 800
f 794 800 799
f 794 799 795
f 793 798 797
f 793 796 798
