# Single Object Root Dungeon
o Root_Dungeon_Mesh
v 1.0000 34.0000 1.0000
v 1.0000 34.0000 -1.0000
v 1.0000 32.0000 1.0000
v 1.0000 32.0000 -1.0000
v -1.0000 34.0000 -1.0000
v -1.0000 34.0000 1.0000
v -1.0000 32.0000 -1.0000
v -1.0000 32.0000 1.0000
v -1.0000 34.0000 -1.0000
v 1.0000 34.0000 -1.0000
v -1.0000 34.0000 1.0000
v 1.0000 34.0000 1.0000
v -1.0000 32.0000 1.0000
v 1.0000 32.0000 1.0000
v -1.0000 32.0000 -1.0000
v 1.0000 32.0000 -1.0000
v -1.0000 34.0000 1.0000
v 1.0000 34.0000 1.0000
v -1.0000 32.0000 1.0000
v 1.0000 32.0000 1.0000
v 1.0000 34.0000 -1.0000
v -1.0000 34.0000 -1.0000
v 1.0000 32.0000 -1.0000
v -1.0000 32.0000 -1.0000
f 1 3 2
f 3 4 2
f 5 7 6
f 7 8 6
f 9 11 10
f 11 12 10
f 13 15 14
f 15 16 14
f 17 19 18
f 19 20 18
f 21 23 22
f 23 24 22
v 1.0000 34.0000 3.0000
v 1.0000 34.0000 1.0000
v 1.0000 32.0000 3.0000
v 1.0000 32.0000 1.0000
v -1.0000 34.0000 1.0000
v -1.0000 34.0000 3.0000
v -1.0000 32.0000 1.0000
v -1.0000 32.0000 3.0000
v -1.0000 34.0000 1.0000
v 1.0000 34.0000 1.0000
v -1.0000 34.0000 3.0000
v 1.0000 34.0000 3.0000
v -1.0000 32.0000 3.0000
v 1.0000 32.0000 3.0000
v -1.0000 32.0000 1.0000
v 1.0000 32.0000 1.0000
v -1.0000 34.0000 3.0000
v 1.0000 34.0000 3.0000
v -1.0000 32.0000 3.0000
v 1.0000 32.0000 3.0000
v 1.0000 34.0000 1.0000
v -1.0000 34.0000 1.0000
v 1.0000 32.0000 1.0000
v -1.0000 32.0000 1.0000
f 25 27 26
f 27 28 26
f 29 31 30
f 31 32 30
f 33 35 34
f 35 36 34
f 37 39 38
f 39 40 38
f 41 43 42
f 43 44 42
f 45 47 46
f 47 48 46
v 3.0000 34.0000 1.0000
v 3.0000 34.0000 -1.0000
v 3.0000 32.0000 1.0000
v 3.0000 32.0000 -1.0000
v 1.0000 34.0000 -1.0000
v 1.0000 34.0000 1.0000
v 1.0000 32.0000 -1.0000
v 1.0000 32.0000 1.0000
v 1.0000 34.0000 -1.0000
v 3.0000 34.0000 -1.0000
v 1.0000 34.0000 1.0000
v 3.0000 34.0000 1.0000
v 1.0000 32.0000 1.0000
v 3.0000 32.0000 1.0000
v 1.0000 32.0000 -1.0000
v 3.0000 32.0000 -1.0000
v 1.0000 34.0000 1.0000
v 3.0000 34.0000 1.0000
v 1.0000 32.0000 1.0000
v 3.0000 32.0000 1.0000
v 3.0000 34.0000 -1.0000
v 1.0000 34.0000 -1.0000
v 3.0000 32.0000 -1.0000
v 1.0000 32.0000 -1.0000
f 49 51 50
f 51 52 50
f 53 55 54
f 55 56 54
f 57 59 58
f 59 60 58
f 61 63 62
f 63 64 62
f 65 67 66
f 67 68 66
f 69 71 70
f 71 72 70
v 3.0000 34.0000 3.0000
v 3.0000 34.0000 1.0000
v 3.0000 32.0000 3.0000
v 3.0000 32.0000 1.0000
v 1.0000 34.0000 1.0000
v 1.0000 34.0000 3.0000
v 1.0000 32.0000 1.0000
v 1.0000 32.0000 3.0000
v 1.0000 34.0000 1.0000
v 3.0000 34.0000 1.0000
v 1.0000 34.0000 3.0000
v 3.0000 34.0000 3.0000
v 1.0000 32.0000 3.0000
v 3.0000 32.0000 3.0000
v 1.0000 32.0000 1.0000
v 3.0000 32.0000 1.0000
v 1.0000 34.0000 3.0000
v 3.0000 34.0000 3.0000
v 1.0000 32.0000 3.0000
v 3.0000 32.0000 3.0000
v 3.0000 34.0000 1.0000
v 1.0000 34.0000 1.0000
v 3.0000 32.0000 1.0000
v 1.0000 32.0000 1.0000
f 73 75 74
f 75 76 74
f 77 79 78
f 79 80 78
f 81 83 82
f 83 84 82
f 85 87 86
f 87 88 86
f 89 91 90
f 91 92 90
f 93 95 94
f 95 96 94
v 1.0000 32.0000 1.0000
v 1.0000 32.0000 -1.0000
v 1.0000 30.0000 1.0000
v 1.0000 30.0000 -1.0000
v -1.0000 32.0000 -1.0000
v -1.0000 32.0000 1.0000
v -1.0000 30.0000 -1.0000
v -1.0000 30.0000 1.0000
v -1.0000 32.0000 -1.0000
v 1.0000 32.0000 -1.0000
v -1.0000 32.0000 1.0000
v 1.0000 32.0000 1.0000
v -1.0000 30.0000 1.0000
v 1.0000 30.0000 1.0000
v -1.0000 30.0000 -1.0000
v 1.0000 30.0000 -1.0000
v -1.0000 32.0000 1.0000
v 1.0000 32.0000 1.0000
v -1.0000 30.0000 1.0000
v 1.0000 30.0000 1.0000
v 1.0000 32.0000 -1.0000
v -1.0000 32.0000 -1.0000
v 1.0000 30.0000 -1.0000
v -1.0000 30.0000 -1.0000
f 97 99 98
f 99 100 98
f 101 103 102
f 103 104 102
f 105 107 106
f 107 108 106
f 109 111 110
f 111 112 110
f 113 115 114
f 115 116 114
f 117 119 118
f 119 120 118
v 3.0000 32.0000 -1.0000
v 3.0000 32.0000 -3.0000
v 3.0000 30.0000 -1.0000
v 3.0000 30.0000 -3.0000
v 1.0000 32.0000 -3.0000
v 1.0000 32.0000 -1.0000
v 1.0000 30.0000 -3.0000
v 1.0000 30.0000 -1.0000
v 1.0000 32.0000 -3.0000
v 3.0000 32.0000 -3.0000
v 1.0000 32.0000 -1.0000
v 3.0000 32.0000 -1.0000
v 1.0000 30.0000 -1.0000
v 3.0000 30.0000 -1.0000
v 1.0000 30.0000 -3.0000
v 3.0000 30.0000 -3.0000
v 1.0000 32.0000 -1.0000
v 3.0000 32.0000 -1.0000
v 1.0000 30.0000 -1.0000
v 3.0000 30.0000 -1.0000
v 3.0000 32.0000 -3.0000
v 1.0000 32.0000 -3.0000
v 3.0000 30.0000 -3.0000
v 1.0000 30.0000 -3.0000
f 121 123 122
f 123 124 122
f 125 127 126
f 127 128 126
f 129 131 130
f 131 132 130
f 133 135 134
f 135 136 134
f 137 139 138
f 139 140 138
f 141 143 142
f 143 144 142
v 3.0000 32.0000 1.0000
v 3.0000 32.0000 -1.0000
v 3.0000 30.0000 1.0000
v 3.0000 30.0000 -1.0000
v 1.0000 32.0000 -1.0000
v 1.0000 32.0000 1.0000
v 1.0000 30.0000 -1.0000
v 1.0000 30.0000 1.0000
v 1.0000 32.0000 -1.0000
v 3.0000 32.0000 -1.0000
v 1.0000 32.0000 1.0000
v 3.0000 32.0000 1.0000
v 1.0000 30.0000 1.0000
v 3.0000 30.0000 1.0000
v 1.0000 30.0000 -1.0000
v 3.0000 30.0000 -1.0000
v 1.0000 32.0000 1.0000
v 3.0000 32.0000 1.0000
v 1.0000 30.0000 1.0000
v 3.0000 30.0000 1.0000
v 3.0000 32.0000 -1.0000
v 1.0000 32.0000 -1.0000
v 3.0000 30.0000 -1.0000
v 1.0000 30.0000 -1.0000
f 145 147 146
f 147 148 146
f 149 151 150
f 151 152 150
f 153 155 154
f 155 156 154
f 157 159 158
f 159 160 158
f 161 163 162
f 163 164 162
f 165 167 166
f 167 168 166
v 5.0000 32.0000 -1.0000
v 5.0000 32.0000 -3.0000
v 5.0000 30.0000 -1.0000
v 5.0000 30.0000 -3.0000
v 3.0000 32.0000 -3.0000
v 3.0000 32.0000 -1.0000
v 3.0000 30.0000 -3.0000
v 3.0000 30.0000 -1.0000
v 3.0000 32.0000 -3.0000
v 5.0000 32.0000 -3.0000
v 3.0000 32.0000 -1.0000
v 5.0000 32.0000 -1.0000
v 3.0000 30.0000 -1.0000
v 5.0000 30.0000 -1.0000
v 3.0000 30.0000 -3.0000
v 5.0000 30.0000 -3.0000
v 3.0000 32.0000 -1.0000
v 5.0000 32.0000 -1.0000
v 3.0000 30.0000 -1.0000
v 5.0000 30.0000 -1.0000
v 5.0000 32.0000 -3.0000
v 3.0000 32.0000 -3.0000
v 5.0000 30.0000 -3.0000
v 3.0000 30.0000 -3.0000
f 169 171 170
f 171 172 170
f 173 175 174
f 175 176 174
f 177 179 178
f 179 180 178
f 181 183 182
f 183 184 182
f 185 187 186
f 187 188 186
f 189 191 190
f 191 192 190
v 5.0000 32.0000 1.0000
v 5.0000 32.0000 -1.0000
v 5.0000 30.0000 1.0000
v 5.0000 30.0000 -1.0000
v 3.0000 32.0000 -1.0000
v 3.0000 32.0000 1.0000
v 3.0000 30.0000 -1.0000
v 3.0000 30.0000 1.0000
v 3.0000 32.0000 -1.0000
v 5.0000 32.0000 -1.0000
v 3.0000 32.0000 1.0000
v 5.0000 32.0000 1.0000
v 3.0000 30.0000 1.0000
v 5.0000 30.0000 1.0000
v 3.0000 30.0000 -1.0000
v 5.0000 30.0000 -1.0000
v 3.0000 32.0000 1.0000
v 5.0000 32.0000 1.0000
v 3.0000 30.0000 1.0000
v 5.0000 30.0000 1.0000
v 5.0000 32.0000 -1.0000
v 3.0000 32.0000 -1.0000
v 5.0000 30.0000 -1.0000
v 3.0000 30.0000 -1.0000
f 193 195 194
f 195 196 194
f 197 199 198
f 199 200 198
f 201 203 202
f 203 204 202
f 205 207 206
f 207 208 206
f 209 211 210
f 211 212 210
f 213 215 214
f 215 216 214
v 1.0000 30.0000 1.0000
v 1.0000 30.0000 -1.0000
v 1.0000 28.0000 1.0000
v 1.0000 28.0000 -1.0000
v -1.0000 30.0000 -1.0000
v -1.0000 30.0000 1.0000
v -1.0000 28.0000 -1.0000
v -1.0000 28.0000 1.0000
v -1.0000 30.0000 -1.0000
v 1.0000 30.0000 -1.0000
v -1.0000 30.0000 1.0000
v 1.0000 30.0000 1.0000
v -1.0000 28.0000 1.0000
v 1.0000 28.0000 1.0000
v -1.0000 28.0000 -1.0000
v 1.0000 28.0000 -1.0000
v -1.0000 30.0000 1.0000
v 1.0000 30.0000 1.0000
v -1.0000 28.0000 1.0000
v 1.0000 28.0000 1.0000
v 1.0000 30.0000 -1.0000
v -1.0000 30.0000 -1.0000
v 1.0000 28.0000 -1.0000
v -1.0000 28.0000 -1.0000
f 217 219 218
f 219 220 218
f 221 223 222
f 223 224 222
f 225 227 226
f 227 228 226
f 229 231 230
f 231 232 230
f 233 235 234
f 235 236 234
f 237 239 238
f 239 240 238
v 1.0000 28.0000 3.0000
v 1.0000 28.0000 1.0000
v 1.0000 26.0000 3.0000
v 1.0000 26.0000 1.0000
v -1.0000 28.0000 1.0000
v -1.0000 28.0000 3.0000
v -1.0000 26.0000 1.0000
v -1.0000 26.0000 3.0000
v -1.0000 28.0000 1.0000
v 1.0000 28.0000 1.0000
v -1.0000 28.0000 3.0000
v 1.0000 28.0000 3.0000
v -1.0000 26.0000 3.0000
v 1.0000 26.0000 3.0000
v -1.0000 26.0000 1.0000
v 1.0000 26.0000 1.0000
v -1.0000 28.0000 3.0000
v 1.0000 28.0000 3.0000
v -1.0000 26.0000 3.0000
v 1.0000 26.0000 3.0000
v 1.0000 28.0000 1.0000
v -1.0000 28.0000 1.0000
v 1.0000 26.0000 1.0000
v -1.0000 26.0000 1.0000
f 241 243 242
f 243 244 242
f 245 247 246
f 247 248 246
f 249 251 250
f 251 252 250
f 253 255 254
f 255 256 254
f 257 259 258
f 259 260 258
f 261 263 262
f 263 264 262
v 1.0000 26.0000 1.0000
v 1.0000 26.0000 -1.0000
v 1.0000 24.0000 1.0000
v 1.0000 24.0000 -1.0000
v -1.0000 26.0000 -1.0000
v -1.0000 26.0000 1.0000
v -1.0000 24.0000 -1.0000
v -1.0000 24.0000 1.0000
v -1.0000 26.0000 -1.0000
v 1.0000 26.0000 -1.0000
v -1.0000 26.0000 1.0000
v 1.0000 26.0000 1.0000
v -1.0000 24.0000 1.0000
v 1.0000 24.0000 1.0000
v -1.0000 24.0000 -1.0000
v 1.0000 24.0000 -1.0000
v -1.0000 26.0000 1.0000
v 1.0000 26.0000 1.0000
v -1.0000 24.0000 1.0000
v 1.0000 24.0000 1.0000
v 1.0000 26.0000 -1.0000
v -1.0000 26.0000 -1.0000
v 1.0000 24.0000 -1.0000
v -1.0000 24.0000 -1.0000
f 265 267 266
f 267 268 266
f 269 271 270
f 271 272 270
f 273 275 274
f 275 276 274
f 277 279 278
f 279 280 278
f 281 283 282
f 283 284 282
f 285 287 286
f 287 288 286
v 1.0000 24.0000 -1.0000
v 1.0000 24.0000 -3.0000
v 1.0000 22.0000 -1.0000
v 1.0000 22.0000 -3.0000
v -1.0000 24.0000 -3.0000
v -1.0000 24.0000 -1.0000
v -1.0000 22.0000 -3.0000
v -1.0000 22.0000 -1.0000
v -1.0000 24.0000 -3.0000
v 1.0000 24.0000 -3.0000
v -1.0000 24.0000 -1.0000
v 1.0000 24.0000 -1.0000
v -1.0000 22.0000 -1.0000
v 1.0000 22.0000 -1.0000
v -1.0000 22.0000 -3.0000
v 1.0000 22.0000 -3.0000
v -1.0000 24.0000 -1.0000
v 1.0000 24.0000 -1.0000
v -1.0000 22.0000 -1.0000
v 1.0000 22.0000 -1.0000
v 1.0000 24.0000 -3.0000
v -1.0000 24.0000 -3.0000
v 1.0000 22.0000 -3.0000
v -1.0000 22.0000 -3.0000
f 289 291 290
f 291 292 290
f 293 295 294
f 295 296 294
f 297 299 298
f 299 300 298
f 301 303 302
f 303 304 302
f 305 307 306
f 307 308 306
f 309 311 310
f 311 312 310
v 1.0000 22.0000 1.0000
v 1.0000 22.0000 -1.0000
v 1.0000 20.0000 1.0000
v 1.0000 20.0000 -1.0000
v -1.0000 22.0000 -1.0000
v -1.0000 22.0000 1.0000
v -1.0000 20.0000 -1.0000
v -1.0000 20.0000 1.0000
v -1.0000 22.0000 -1.0000
v 1.0000 22.0000 -1.0000
v -1.0000 22.0000 1.0000
v 1.0000 22.0000 1.0000
v -1.0000 20.0000 1.0000
v 1.0000 20.0000 1.0000
v -1.0000 20.0000 -1.0000
v 1.0000 20.0000 -1.0000
v -1.0000 22.0000 1.0000
v 1.0000 22.0000 1.0000
v -1.0000 20.0000 1.0000
v 1.0000 20.0000 1.0000
v 1.0000 22.0000 -1.0000
v -1.0000 22.0000 -1.0000
v 1.0000 20.0000 -1.0000
v -1.0000 20.0000 -1.0000
f 313 315 314
f 315 316 314
f 317 319 318
f 319 320 318
f 321 323 322
f 323 324 322
f 325 327 326
f 327 328 326
f 329 331 330
f 331 332 330
f 333 335 334
f 335 336 334
v 3.0000 22.0000 -1.0000
v 3.0000 22.0000 -3.0000
v 3.0000 20.0000 -1.0000
v 3.0000 20.0000 -3.0000
v 1.0000 22.0000 -3.0000
v 1.0000 22.0000 -1.0000
v 1.0000 20.0000 -3.0000
v 1.0000 20.0000 -1.0000
v 1.0000 22.0000 -3.0000
v 3.0000 22.0000 -3.0000
v 1.0000 22.0000 -1.0000
v 3.0000 22.0000 -1.0000
v 1.0000 20.0000 -1.0000
v 3.0000 20.0000 -1.0000
v 1.0000 20.0000 -3.0000
v 3.0000 20.0000 -3.0000
v 1.0000 22.0000 -1.0000
v 3.0000 22.0000 -1.0000
v 1.0000 20.0000 -1.0000
v 3.0000 20.0000 -1.0000
v 3.0000 22.0000 -3.0000
v 1.0000 22.0000 -3.0000
v 3.0000 20.0000 -3.0000
v 1.0000 20.0000 -3.0000
f 337 339 338
f 339 340 338
f 341 343 342
f 343 344 342
f 345 347 346
f 347 348 346
f 349 351 350
f 351 352 350
f 353 355 354
f 355 356 354
f 357 359 358
f 359 360 358
v 1.0000 20.0000 1.0000
v 1.0000 20.0000 -1.0000
v 1.0000 18.0000 1.0000
v 1.0000 18.0000 -1.0000
v -1.0000 20.0000 -1.0000
v -1.0000 20.0000 1.0000
v -1.0000 18.0000 -1.0000
v -1.0000 18.0000 1.0000
v -1.0000 20.0000 -1.0000
v 1.0000 20.0000 -1.0000
v -1.0000 20.0000 1.0000
v 1.0000 20.0000 1.0000
v -1.0000 18.0000 1.0000
v 1.0000 18.0000 1.0000
v -1.0000 18.0000 -1.0000
v 1.0000 18.0000 -1.0000
v -1.0000 20.0000 1.0000
v 1.0000 20.0000 1.0000
v -1.0000 18.0000 1.0000
v 1.0000 18.0000 1.0000
v 1.0000 20.0000 -1.0000
v -1.0000 20.0000 -1.0000
v 1.0000 18.0000 -1.0000
v -1.0000 18.0000 -1.0000
f 361 363 362
f 363 364 362
f 365 367 366
f 367 368 366
f 369 371 370
f 371 372 370
f 373 375 374
f 375 376 374
f 377 379 378
f 379 380 378
f 381 383 382
f 383 384 382
v -1.0000 18.0000 -1.0000
v -1.0000 18.0000 -3.0000
v -1.0000 16.0000 -1.0000
v -1.0000 16.0000 -3.0000
v -3.0000 18.0000 -3.0000
v -3.0000 18.0000 -1.0000
v -3.0000 16.0000 -3.0000
v -3.0000 16.0000 -1.0000
v -3.0000 18.0000 -3.0000
v -1.0000 18.0000 -3.0000
v -3.0000 18.0000 -1.0000
v -1.0000 18.0000 -1.0000
v -3.0000 16.0000 -1.0000
v -1.0000 16.0000 -1.0000
v -3.0000 16.0000 -3.0000
v -1.0000 16.0000 -3.0000
v -3.0000 18.0000 -1.0000
v -1.0000 18.0000 -1.0000
v -3.0000 16.0000 -1.0000
v -1.0000 16.0000 -1.0000
v -1.0000 18.0000 -3.0000
v -3.0000 18.0000 -3.0000
v -1.0000 16.0000 -3.0000
v -3.0000 16.0000 -3.0000
f 385 387 386
f 387 388 386
f 389 391 390
f 391 392 390
f 393 395 394
f 395 396 394
f 397 399 398
f 399 400 398
f 401 403 402
f 403 404 402
f 405 407 406
f 407 408 406
v 1.0000 16.0000 -1.0000
v 1.0000 16.0000 -3.0000
v 1.0000 14.0000 -1.0000
v 1.0000 14.0000 -3.0000
v -1.0000 16.0000 -3.0000
v -1.0000 16.0000 -1.0000
v -1.0000 14.0000 -3.0000
v -1.0000 14.0000 -1.0000
v -1.0000 16.0000 -3.0000
v 1.0000 16.0000 -3.0000
v -1.0000 16.0000 -1.0000
v 1.0000 16.0000 -1.0000
v -1.0000 14.0000 -1.0000
v 1.0000 14.0000 -1.0000
v -1.0000 14.0000 -3.0000
v 1.0000 14.0000 -3.0000
v -1.0000 16.0000 -1.0000
v 1.0000 16.0000 -1.0000
v -1.0000 14.0000 -1.0000
v 1.0000 14.0000 -1.0000
v 1.0000 16.0000 -3.0000
v -1.0000 16.0000 -3.0000
v 1.0000 14.0000 -3.0000
v -1.0000 14.0000 -3.0000
f 409 411 410
f 411 412 410
f 413 415 414
f 415 416 414
f 417 419 418
f 419 420 418
f 421 423 422
f 423 424 422
f 425 427 426
f 427 428 426
f 429 431 430
f 431 432 430
v -1.0000 16.0000 1.0000
v -1.0000 16.0000 -1.0000
v -1.0000 14.0000 1.0000
v -1.0000 14.0000 -1.0000
v -3.0000 16.0000 -1.0000
v -3.0000 16.0000 1.0000
v -3.0000 14.0000 -1.0000
v -3.0000 14.0000 1.0000
v -3.0000 16.0000 -1.0000
v -1.0000 16.0000 -1.0000
v -3.0000 16.0000 1.0000
v -1.0000 16.0000 1.0000
v -3.0000 14.0000 1.0000
v -1.0000 14.0000 1.0000
v -3.0000 14.0000 -1.0000
v -1.0000 14.0000 -1.0000
v -3.0000 16.0000 1.0000
v -1.0000 16.0000 1.0000
v -3.0000 14.0000 1.0000
v -1.0000 14.0000 1.0000
v -1.0000 16.0000 -1.0000
v -3.0000 16.0000 -1.0000
v -1.0000 14.0000 -1.0000
v -3.0000 14.0000 -1.0000
f 433 435 434
f 435 436 434
f 437 439 438
f 439 440 438
f 441 443 442
f 443 444 442
f 445 447 446
f 447 448 446
f 449 451 450
f 451 452 450
f 453 455 454
f 455 456 454
v 1.0000 14.0000 -1.0000
v 1.0000 14.0000 -3.0000
v 1.0000 12.0000 -1.0000
v 1.0000 12.0000 -3.0000
v -1.0000 14.0000 -3.0000
v -1.0000 14.0000 -1.0000
v -1.0000 12.0000 -3.0000
v -1.0000 12.0000 -1.0000
v -1.0000 14.0000 -3.0000
v 1.0000 14.0000 -3.0000
v -1.0000 14.0000 -1.0000
v 1.0000 14.0000 -1.0000
v -1.0000 12.0000 -1.0000
v 1.0000 12.0000 -1.0000
v -1.0000 12.0000 -3.0000
v 1.0000 12.0000 -3.0000
v -1.0000 14.0000 -1.0000
v 1.0000 14.0000 -1.0000
v -1.0000 12.0000 -1.0000
v 1.0000 12.0000 -1.0000
v 1.0000 14.0000 -3.0000
v -1.0000 14.0000 -3.0000
v 1.0000 12.0000 -3.0000
v -1.0000 12.0000 -3.0000
f 457 459 458
f 459 460 458
f 461 463 462
f 463 464 462
f 465 467 466
f 467 468 466
f 469 471 470
f 471 472 470
f 473 475 474
f 475 476 474
f 477 479 478
f 479 480 478
v 3.0000 14.0000 -3.0000
v 3.0000 14.0000 -5.0000
v 3.0000 12.0000 -3.0000
v 3.0000 12.0000 -5.0000
v 1.0000 14.0000 -5.0000
v 1.0000 14.0000 -3.0000
v 1.0000 12.0000 -5.0000
v 1.0000 12.0000 -3.0000
v 1.0000 14.0000 -5.0000
v 3.0000 14.0000 -5.0000
v 1.0000 14.0000 -3.0000
v 3.0000 14.0000 -3.0000
v 1.0000 12.0000 -3.0000
v 3.0000 12.0000 -3.0000
v 1.0000 12.0000 -5.0000
v 3.0000 12.0000 -5.0000
v 1.0000 14.0000 -3.0000
v 3.0000 14.0000 -3.0000
v 1.0000 12.0000 -3.0000
v 3.0000 12.0000 -3.0000
v 3.0000 14.0000 -5.0000
v 1.0000 14.0000 -5.0000
v 3.0000 12.0000 -5.0000
v 1.0000 12.0000 -5.0000
f 481 483 482
f 483 484 482
f 485 487 486
f 487 488 486
f 489 491 490
f 491 492 490
f 493 495 494
f 495 496 494
f 497 499 498
f 499 500 498
f 501 503 502
f 503 504 502
v 1.0000 12.0000 -1.0000
v 1.0000 12.0000 -3.0000
v 1.0000 10.0000 -1.0000
v 1.0000 10.0000 -3.0000
v -1.0000 12.0000 -3.0000
v -1.0000 12.0000 -1.0000
v -1.0000 10.0000 -3.0000
v -1.0000 10.0000 -1.0000
v -1.0000 12.0000 -3.0000
v 1.0000 12.0000 -3.0000
v -1.0000 12.0000 -1.0000
v 1.0000 12.0000 -1.0000
v -1.0000 10.0000 -1.0000
v 1.0000 10.0000 -1.0000
v -1.0000 10.0000 -3.0000
v 1.0000 10.0000 -3.0000
v -1.0000 12.0000 -1.0000
v 1.0000 12.0000 -1.0000
v -1.0000 10.0000 -1.0000
v 1.0000 10.0000 -1.0000
v 1.0000 12.0000 -3.0000
v -1.0000 12.0000 -3.0000
v 1.0000 10.0000 -3.0000
v -1.0000 10.0000 -3.0000
f 505 507 506
f 507 508 506
f 509 511 510
f 511 512 510
f 513 515 514
f 515 516 514
f 517 519 518
f 519 520 518
f 521 523 522
f 523 524 522
f 525 527 526
f 527 528 526
v -1.0000 12.0000 -3.0000
v -1.0000 12.0000 -5.0000
v -1.0000 10.0000 -3.0000
v -1.0000 10.0000 -5.0000
v -3.0000 12.0000 -5.0000
v -3.0000 12.0000 -3.0000
v -3.0000 10.0000 -5.0000
v -3.0000 10.0000 -3.0000
v -3.0000 12.0000 -5.0000
v -1.0000 12.0000 -5.0000
v -3.0000 12.0000 -3.0000
v -1.0000 12.0000 -3.0000
v -3.0000 10.0000 -3.0000
v -1.0000 10.0000 -3.0000
v -3.0000 10.0000 -5.0000
v -1.0000 10.0000 -5.0000
v -3.0000 12.0000 -3.0000
v -1.0000 12.0000 -3.0000
v -3.0000 10.0000 -3.0000
v -1.0000 10.0000 -3.0000
v -1.0000 12.0000 -5.0000
v -3.0000 12.0000 -5.0000
v -1.0000 10.0000 -5.0000
v -3.0000 10.0000 -5.0000
f 529 531 530
f 531 532 530
f 533 535 534
f 535 536 534
f 537 539 538
f 539 540 538
f 541 543 542
f 543 544 542
f 545 547 546
f 547 548 546
f 549 551 550
f 551 552 550
v 1.0000 10.0000 -1.0000
v 1.0000 10.0000 -3.0000
v 1.0000 8.0000 -1.0000
v 1.0000 8.0000 -3.0000
v -1.0000 10.0000 -3.0000
v -1.0000 10.0000 -1.0000
v -1.0000 8.0000 -3.0000
v -1.0000 8.0000 -1.0000
v -1.0000 10.0000 -3.0000
v 1.0000 10.0000 -3.0000
v -1.0000 10.0000 -1.0000
v 1.0000 10.0000 -1.0000
v -1.0000 8.0000 -1.0000
v 1.0000 8.0000 -1.0000
v -1.0000 8.0000 -3.0000
v 1.0000 8.0000 -3.0000
v -1.0000 10.0000 -1.0000
v 1.0000 10.0000 -1.0000
v -1.0000 8.0000 -1.0000
v 1.0000 8.0000 -1.0000
v 1.0000 10.0000 -3.0000
v -1.0000 10.0000 -3.0000
v 1.0000 8.0000 -3.0000
v -1.0000 8.0000 -3.0000
f 553 555 554
f 555 556 554
f 557 559 558
f 559 560 558
f 561 563 562
f 563 564 562
f 565 567 566
f 567 568 566
f 569 571 570
f 571 572 570
f 573 575 574
f 575 576 574
v 1.0000 8.0000 1.0000
v 1.0000 8.0000 -1.0000
v 1.0000 6.0000 1.0000
v 1.0000 6.0000 -1.0000
v -1.0000 8.0000 -1.0000
v -1.0000 8.0000 1.0000
v -1.0000 6.0000 -1.0000
v -1.0000 6.0000 1.0000
v -1.0000 8.0000 -1.0000
v 1.0000 8.0000 -1.0000
v -1.0000 8.0000 1.0000
v 1.0000 8.0000 1.0000
v -1.0000 6.0000 1.0000
v 1.0000 6.0000 1.0000
v -1.0000 6.0000 -1.0000
v 1.0000 6.0000 -1.0000
v -1.0000 8.0000 1.0000
v 1.0000 8.0000 1.0000
v -1.0000 6.0000 1.0000
v 1.0000 6.0000 1.0000
v 1.0000 8.0000 -1.0000
v -1.0000 8.0000 -1.0000
v 1.0000 6.0000 -1.0000
v -1.0000 6.0000 -1.0000
f 577 579 578
f 579 580 578
f 581 583 582
f 583 584 582
f 585 587 586
f 587 588 586
f 589 591 590
f 591 592 590
f 593 595 594
f 595 596 594
f 597 599 598
f 599 600 598
v -1.0000 8.0000 -1.0000
v -1.0000 8.0000 -3.0000
v -1.0000 6.0000 -1.0000
v -1.0000 6.0000 -3.0000
v -3.0000 8.0000 -3.0000
v -3.0000 8.0000 -1.0000
v -3.0000 6.0000 -3.0000
v -3.0000 6.0000 -1.0000
v -3.0000 8.0000 -3.0000
v -1.0000 8.0000 -3.0000
v -3.0000 8.0000 -1.0000
v -1.0000 8.0000 -1.0000
v -3.0000 6.0000 -1.0000
v -1.0000 6.0000 -1.0000
v -3.0000 6.0000 -3.0000
v -1.0000 6.0000 -3.0000
v -3.0000 8.0000 -1.0000
v -1.0000 8.0000 -1.0000
v -3.0000 6.0000 -1.0000
v -1.0000 6.0000 -1.0000
v -1.0000 8.0000 -3.0000
v -3.0000 8.0000 -3.0000
v -1.0000 6.0000 -3.0000
v -3.0000 6.0000 -3.0000
f 601 603 602
f 603 604 602
f 605 607 606
f 607 608 606
f 609 611 610
f 611 612 610
f 613 615 614
f 615 616 614
f 617 619 618
f 619 620 618
f 621 623 622
f 623 624 622
v -1.0000 6.0000 1.0000
v -1.0000 6.0000 -1.0000
v -1.0000 4.0000 1.0000
v -1.0000 4.0000 -1.0000
v -3.0000 6.0000 -1.0000
v -3.0000 6.0000 1.0000
v -3.0000 4.0000 -1.0000
v -3.0000 4.0000 1.0000
v -3.0000 6.0000 -1.0000
v -1.0000 6.0000 -1.0000
v -3.0000 6.0000 1.0000
v -1.0000 6.0000 1.0000
v -3.0000 4.0000 1.0000
v -1.0000 4.0000 1.0000
v -3.0000 4.0000 -1.0000
v -1.0000 4.0000 -1.0000
v -3.0000 6.0000 1.0000
v -1.0000 6.0000 1.0000
v -3.0000 4.0000 1.0000
v -1.0000 4.0000 1.0000
v -1.0000 6.0000 -1.0000
v -3.0000 6.0000 -1.0000
v -1.0000 4.0000 -1.0000
v -3.0000 4.0000 -1.0000
f 625 627 626
f 627 628 626
f 629 631 630
f 631 632 630
f 633 635 634
f 635 636 634
f 637 639 638
f 639 640 638
f 641 643 642
f 643 644 642
f 645 647 646
f 647 648 646
v -1.0000 4.0000 1.0000
v -1.0000 4.0000 -1.0000
v -1.0000 2.0000 1.0000
v -1.0000 2.0000 -1.0000
v -3.0000 4.0000 -1.0000
v -3.0000 4.0000 1.0000
v -3.0000 2.0000 -1.0000
v -3.0000 2.0000 1.0000
v -3.0000 4.0000 -1.0000
v -1.0000 4.0000 -1.0000
v -3.0000 4.0000 1.0000
v -1.0000 4.0000 1.0000
v -3.0000 2.0000 1.0000
v -1.0000 2.0000 1.0000
v -3.0000 2.0000 -1.0000
v -1.0000 2.0000 -1.0000
v -3.0000 4.0000 1.0000
v -1.0000 4.0000 1.0000
v -3.0000 2.0000 1.0000
v -1.0000 2.0000 1.0000
v -1.0000 4.0000 -1.0000
v -3.0000 4.0000 -1.0000
v -1.0000 2.0000 -1.0000
v -3.0000 2.0000 -1.0000
f 649 651 650
f 651 652 650
f 653 655 654
f 655 656 654
f 657 659 658
f 659 660 658
f 661 663 662
f 663 664 662
f 665 667 666
f 667 668 666
f 669 671 670
f 671 672 670
v -3.0000 4.0000 3.0000
v -3.0000 4.0000 1.0000
v -3.0000 2.0000 3.0000
v -3.0000 2.0000 1.0000
v -5.0000 4.0000 1.0000
v -5.0000 4.0000 3.0000
v -5.0000 2.0000 1.0000
v -5.0000 2.0000 3.0000
v -5.0000 4.0000 1.0000
v -3.0000 4.0000 1.0000
v -5.0000 4.0000 3.0000
v -3.0000 4.0000 3.0000
v -5.0000 2.0000 3.0000
v -3.0000 2.0000 3.0000
v -5.0000 2.0000 1.0000
v -3.0000 2.0000 1.0000
v -5.0000 4.0000 3.0000
v -3.0000 4.0000 3.0000
v -5.0000 2.0000 3.0000
v -3.0000 2.0000 3.0000
v -3.0000 4.0000 1.0000
v -5.0000 4.0000 1.0000
v -3.0000 2.0000 1.0000
v -5.0000 2.0000 1.0000
f 673 675 674
f 675 676 674
f 677 679 678
f 679 680 678
f 681 683 682
f 683 684 682
f 685 687 686
f 687 688 686
f 689 691 690
f 691 692 690
f 693 695 694
f 695 696 694
v -3.0000 4.0000 5.0000
v -3.0000 4.0000 3.0000
v -3.0000 2.0000 5.0000
v -3.0000 2.0000 3.0000
v -5.0000 4.0000 3.0000
v -5.0000 4.0000 5.0000
v -5.0000 2.0000 3.0000
v -5.0000 2.0000 5.0000
v -5.0000 4.0000 3.0000
v -3.0000 4.0000 3.0000
v -5.0000 4.0000 5.0000
v -3.0000 4.0000 5.0000
v -5.0000 2.0000 5.0000
v -3.0000 2.0000 5.0000
v -5.0000 2.0000 3.0000
v -3.0000 2.0000 3.0000
v -5.0000 4.0000 5.0000
v -3.0000 4.0000 5.0000
v -5.0000 2.0000 5.0000
v -3.0000 2.0000 5.0000
v -3.0000 4.0000 3.0000
v -5.0000 4.0000 3.0000
v -3.0000 2.0000 3.0000
v -5.0000 2.0000 3.0000
f 697 699 698
f 699 700 698
f 701 703 702
f 703 704 702
f 705 707 706
f 707 708 706
f 709 711 710
f 711 712 710
f 713 715 714
f 715 716 714
f 717 719 718
f 719 720 718
v -1.0000 4.0000 3.0000
v -1.0000 4.0000 1.0000
v -1.0000 2.0000 3.0000
v -1.0000 2.0000 1.0000
v -3.0000 4.0000 1.0000
v -3.0000 4.0000 3.0000
v -3.0000 2.0000 1.0000
v -3.0000 2.0000 3.0000
v -3.0000 4.0000 1.0000
v -1.0000 4.0000 1.0000
v -3.0000 4.0000 3.0000
v -1.0000 4.0000 3.0000
v -3.0000 2.0000 3.0000
v -1.0000 2.0000 3.0000
v -3.0000 2.0000 1.0000
v -1.0000 2.0000 1.0000
v -3.0000 4.0000 3.0000
v -1.0000 4.0000 3.0000
v -3.0000 2.0000 3.0000
v -1.0000 2.0000 3.0000
v -1.0000 4.0000 1.0000
v -3.0000 4.0000 1.0000
v -1.0000 2.0000 1.0000
v -3.0000 2.0000 1.0000
f 721 723 722
f 723 724 722
f 725 727 726
f 727 728 726
f 729 731 730
f 731 732 730
f 733 735 734
f 735 736 734
f 737 739 738
f 739 740 738
f 741 743 742
f 743 744 742
v -1.0000 4.0000 5.0000
v -1.0000 4.0000 3.0000
v -1.0000 2.0000 5.0000
v -1.0000 2.0000 3.0000
v -3.0000 4.0000 3.0000
v -3.0000 4.0000 5.0000
v -3.0000 2.0000 3.0000
v -3.0000 2.0000 5.0000
v -3.0000 4.0000 3.0000
v -1.0000 4.0000 3.0000
v -3.0000 4.0000 5.0000
v -1.0000 4.0000 5.0000
v -3.0000 2.0000 5.0000
v -1.0000 2.0000 5.0000
v -3.0000 2.0000 3.0000
v -1.0000 2.0000 3.0000
v -3.0000 4.0000 5.0000
v -1.0000 4.0000 5.0000
v -3.0000 2.0000 5.0000
v -1.0000 2.0000 5.0000
v -1.0000 4.0000 3.0000
v -3.0000 4.0000 3.0000
v -1.0000 2.0000 3.0000
v -3.0000 2.0000 3.0000
f 745 747 746
f 747 748 746
f 749 751 750
f 751 752 750
f 753 755 754
f 755 756 754
f 757 759 758
f 759 760 758
f 761 763 762
f 763 764 762
f 765 767 766
f 767 768 766
v -3.0000 4.0000 -1.0000
v -3.0000 4.0000 -3.0000
v -3.0000 2.0000 -1.0000
v -3.0000 2.0000 -3.0000
v -5.0000 4.0000 -3.0000
v -5.0000 4.0000 -1.0000
v -5.0000 2.0000 -3.0000
v -5.0000 2.0000 -1.0000
v -5.0000 4.0000 -3.0000
v -3.0000 4.0000 -3.0000
v -5.0000 4.0000 -1.0000
v -3.0000 4.0000 -1.0000
v -5.0000 2.0000 -1.0000
v -3.0000 2.0000 -1.0000
v -5.0000 2.0000 -3.0000
v -3.0000 2.0000 -3.0000
v -5.0000 4.0000 -1.0000
v -3.0000 4.0000 -1.0000
v -5.0000 2.0000 -1.0000
v -3.0000 2.0000 -1.0000
v -3.0000 4.0000 -3.0000
v -5.0000 4.0000 -3.0000
v -3.0000 2.0000 -3.0000
v -5.0000 2.0000 -3.0000
f 769 771 770
f 771 772 770
f 773 775 774
f 775 776 774
f 777 779 778
f 779 780 778
f 781 783 782
f 783 784 782
f 785 787 786
f 787 788 786
f 789 791 790
f 791 792 790
v -3.0000 4.0000 1.0000
v -3.0000 4.0000 -1.0000
v -3.0000 2.0000 1.0000
v -3.0000 2.0000 -1.0000
v -5.0000 4.0000 -1.0000
v -5.0000 4.0000 1.0000
v -5.0000 2.0000 -1.0000
v -5.0000 2.0000 1.0000
v -5.0000 4.0000 -1.0000
v -3.0000 4.0000 -1.0000
v -5.0000 4.0000 1.0000
v -3.0000 4.0000 1.0000
v -5.0000 2.0000 1.0000
v -3.0000 2.0000 1.0000
v -5.0000 2.0000 -1.0000
v -3.0000 2.0000 -1.0000
v -5.0000 4.0000 1.0000
v -3.0000 4.0000 1.0000
v -5.0000 2.0000 1.0000
v -3.0000 2.0000 1.0000
v -3.0000 4.0000 -1.0000
v -5.0000 4.0000 -1.0000
v -3.0000 2.0000 -1.0000
v -5.0000 2.0000 -1.0000
f 793 795 794
f 795 796 794
f 797 799 798
f 799 800 798
f 801 803 802
f 803 804 802
f 805 807 806
f 807 808 806
f 809 811 810
f 811 812 810
f 813 815 814
f 815 816 814
v -1.0000 4.0000 -1.0000
v -1.0000 4.0000 -3.0000
v -1.0000 2.0000 -1.0000
v -1.0000 2.0000 -3.0000
v -3.0000 4.0000 -3.0000
v -3.0000 4.0000 -1.0000
v -3.0000 2.0000 -3.0000
v -3.0000 2.0000 -1.0000
v -3.0000 4.0000 -3.0000
v -1.0000 4.0000 -3.0000
v -3.0000 4.0000 -1.0000
v -1.0000 4.0000 -1.0000
v -3.0000 2.0000 -1.0000
v -1.0000 2.0000 -1.0000
v -3.0000 2.0000 -3.0000
v -1.0000 2.0000 -3.0000
v -3.0000 4.0000 -1.0000
v -1.0000 4.0000 -1.0000
v -3.0000 2.0000 -1.0000
v -1.0000 2.0000 -1.0000
v -1.0000 4.0000 -3.0000
v -3.0000 4.0000 -3.0000
v -1.0000 2.0000 -3.0000
v -3.0000 2.0000 -3.0000
f 817 819 818
f 819 820 818
f 821 823 822
f 823 824 822
f 825 827 826
f 827 828 826
f 829 831 830
f 831 832 830
f 833 835 834
f 835 836 834
f 837 839 838
f 839 840 838
v 1.0000 4.0000 -1.0000
v 1.0000 4.0000 -3.0000
v 1.0000 2.0000 -1.0000
v 1.0000 2.0000 -3.0000
v -1.0000 4.0000 -3.0000
v -1.0000 4.0000 -1.0000
v -1.0000 2.0000 -3.0000
v -1.0000 2.0000 -1.0000
v -1.0000 4.0000 -3.0000
v 1.0000 4.0000 -3.0000
v -1.0000 4.0000 -1.0000
v 1.0000 4.0000 -1.0000
v -1.0000 2.0000 -1.0000
v 1.0000 2.0000 -1.0000
v -1.0000 2.0000 -3.0000
v 1.0000 2.0000 -3.0000
v -1.0000 4.0000 -1.0000
v 1.0000 4.0000 -1.0000
v -1.0000 2.0000 -1.0000
v 1.0000 2.0000 -1.0000
v 1.0000 4.0000 -3.0000
v -1.0000 4.0000 -3.0000
v 1.0000 2.0000 -3.0000
v -1.0000 2.0000 -3.0000
f 841 843 842
f 843 844 842
f 845 847 846
f 847 848 846
f 849 851 850
f 851 852 850
f 853 855 854
f 855 856 854
f 857 859 858
f 859 860 858
f 861 863 862
f 863 864 862
v 1.0000 4.0000 1.0000
v 1.0000 4.0000 -1.0000
v 1.0000 2.0000 1.0000
v 1.0000 2.0000 -1.0000
v -1.0000 4.0000 -1.0000
v -1.0000 4.0000 1.0000
v -1.0000 2.0000 -1.0000
v -1.0000 2.0000 1.0000
v -1.0000 4.0000 -1.0000
v 1.0000 4.0000 -1.0000
v -1.0000 4.0000 1.0000
v 1.0000 4.0000 1.0000
v -1.0000 2.0000 1.0000
v 1.0000 2.0000 1.0000
v -1.0000 2.0000 -1.0000
v 1.0000 2.0000 -1.0000
v -1.0000 4.0000 1.0000
v 1.0000 4.0000 1.0000
v -1.0000 2.0000 1.0000
v 1.0000 2.0000 1.0000
v 1.0000 4.0000 -1.0000
v -1.0000 4.0000 -1.0000
v 1.0000 2.0000 -1.0000
v -1.0000 2.0000 -1.0000
f 865 867 866
f 867 868 866
f 869 871 870
f 871 872 870
f 873 875 874
f 875 876 874
f 877 879 878
f 879 880 878
f 881 883 882
f 883 884 882
f 885 887 886
f 887 888 886
v 1.0000 4.0000 3.0000
v 1.0000 4.0000 1.0000
v 1.0000 2.0000 3.0000
v 1.0000 2.0000 1.0000
v -1.0000 4.0000 1.0000
v -1.0000 4.0000 3.0000
v -1.0000 2.0000 1.0000
v -1.0000 2.0000 3.0000
v -1.0000 4.0000 1.0000
v 1.0000 4.0000 1.0000
v -1.0000 4.0000 3.0000
v 1.0000 4.0000 3.0000
v -1.0000 2.0000 3.0000
v 1.0000 2.0000 3.0000
v -1.0000 2.0000 1.0000
v 1.0000 2.0000 1.0000
v -1.0000 4.0000 3.0000
v 1.0000 4.0000 3.0000
v -1.0000 2.0000 3.0000
v 1.0000 2.0000 3.0000
v 1.0000 4.0000 1.0000
v -1.0000 4.0000 1.0000
v 1.0000 2.0000 1.0000
v -1.0000 2.0000 1.0000
f 889 891 890
f 891 892 890
f 893 895 894
f 895 896 894
f 897 899 898
f 899 900 898
f 901 903 902
f 903 904 902
f 905 907 906
f 907 908 906
f 909 911 910
f 911 912 910
v 1.0000 4.0000 5.0000
v 1.0000 4.0000 3.0000
v 1.0000 2.0000 5.0000
v 1.0000 2.0000 3.0000
v -1.0000 4.0000 3.0000
v -1.0000 4.0000 5.0000
v -1.0000 2.0000 3.0000
v -1.0000 2.0000 5.0000
v -1.0000 4.0000 3.0000
v 1.0000 4.0000 3.0000
v -1.0000 4.0000 5.0000
v 1.0000 4.0000 5.0000
v -1.0000 2.0000 5.0000
v 1.0000 2.0000 5.0000
v -1.0000 2.0000 3.0000
v 1.0000 2.0000 3.0000
v -1.0000 4.0000 5.0000
v 1.0000 4.0000 5.0000
v -1.0000 2.0000 5.0000
v 1.0000 2.0000 5.0000
v 1.0000 4.0000 3.0000
v -1.0000 4.0000 3.0000
v 1.0000 2.0000 3.0000
v -1.0000 2.0000 3.0000
f 913 915 914
f 915 916 914
f 917 919 918
f 919 920 918
f 921 923 922
f 923 924 922
f 925 927 926
f 927 928 926
f 929 931 930
f 931 932 930
f 933 935 934
f 935 936 934
v 3.0000 4.0000 -1.0000
v 3.0000 4.0000 -3.0000
v 3.0000 2.0000 -1.0000
v 3.0000 2.0000 -3.0000
v 1.0000 4.0000 -3.0000
v 1.0000 4.0000 -1.0000
v 1.0000 2.0000 -3.0000
v 1.0000 2.0000 -1.0000
v 1.0000 4.0000 -3.0000
v 3.0000 4.0000 -3.0000
v 1.0000 4.0000 -1.0000
v 3.0000 4.0000 -1.0000
v 1.0000 2.0000 -1.0000
v 3.0000 2.0000 -1.0000
v 1.0000 2.0000 -3.0000
v 3.0000 2.0000 -3.0000
v 1.0000 4.0000 -1.0000
v 3.0000 4.0000 -1.0000
v 1.0000 2.0000 -1.0000
v 3.0000 2.0000 -1.0000
v 3.0000 4.0000 -3.0000
v 1.0000 4.0000 -3.0000
v 3.0000 2.0000 -3.0000
v 1.0000 2.0000 -3.0000
f 937 939 938
f 939 940 938
f 941 943 942
f 943 944 942
f 945 947 946
f 947 948 946
f 949 951 950
f 951 952 950
f 953 955 954
f 955 956 954
f 957 959 958
f 959 960 958
v 3.0000 4.0000 1.0000
v 3.0000 4.0000 -1.0000
v 3.0000 2.0000 1.0000
v 3.0000 2.0000 -1.0000
v 1.0000 4.0000 -1.0000
v 1.0000 4.0000 1.0000
v 1.0000 2.0000 -1.0000
v 1.0000 2.0000 1.0000
v 1.0000 4.0000 -1.0000
v 3.0000 4.0000 -1.0000
v 1.0000 4.0000 1.0000
v 3.0000 4.0000 1.0000
v 1.0000 2.0000 1.0000
v 3.0000 2.0000 1.0000
v 1.0000 2.0000 -1.0000
v 3.0000 2.0000 -1.0000
v 1.0000 4.0000 1.0000
v 3.0000 4.0000 1.0000
v 1.0000 2.0000 1.0000
v 3.0000 2.0000 1.0000
v 3.0000 4.0000 -1.0000
v 1.0000 4.0000 -1.0000
v 3.0000 2.0000 -1.0000
v 1.0000 2.0000 -1.0000
f 961 963 962
f 963 964 962
f 965 967 966
f 967 968 966
f 969 971 970
f 971 972 970
f 973 975 974
f 975 976 974
f 977 979 978
f 979 980 978
f 981 983 982
f 983 984 982
v 3.0000 4.0000 3.0000
v 3.0000 4.0000 1.0000
v 3.0000 2.0000 3.0000
v 3.0000 2.0000 1.0000
v 1.0000 4.0000 1.0000
v 1.0000 4.0000 3.0000
v 1.0000 2.0000 1.0000
v 1.0000 2.0000 3.0000
v 1.0000 4.0000 1.0000
v 3.0000 4.0000 1.0000
v 1.0000 4.0000 3.0000
v 3.0000 4.0000 3.0000
v 1.0000 2.0000 3.0000
v 3.0000 2.0000 3.0000
v 1.0000 2.0000 1.0000
v 3.0000 2.0000 1.0000
v 1.0000 4.0000 3.0000
v 3.0000 4.0000 3.0000
v 1.0000 2.0000 3.0000
v 3.0000 2.0000 3.0000
v 3.0000 4.0000 1.0000
v 1.0000 4.0000 1.0000
v 3.0000 2.0000 1.0000
v 1.0000 2.0000 1.0000
f 985 987 986
f 987 988 986
f 989 991 990
f 991 992 990
f 993 995 994
f 995 996 994
f 997 999 998
f 999 1000 998
f 1001 1003 1002
f 1003 1004 1002
f 1005 1007 1006
f 1007 1008 1006
v 3.0000 4.0000 5.0000
v 3.0000 4.0000 3.0000
v 3.0000 2.0000 5.0000
v 3.0000 2.0000 3.0000
v 1.0000 4.0000 3.0000
v 1.0000 4.0000 5.0000
v 1.0000 2.0000 3.0000
v 1.0000 2.0000 5.0000
v 1.0000 4.0000 3.0000
v 3.0000 4.0000 3.0000
v 1.0000 4.0000 5.0000
v 3.0000 4.0000 5.0000
v 1.0000 2.0000 5.0000
v 3.0000 2.0000 5.0000
v 1.0000 2.0000 3.0000
v 3.0000 2.0000 3.0000
v 1.0000 4.0000 5.0000
v 3.0000 4.0000 5.0000
v 1.0000 2.0000 5.0000
v 3.0000 2.0000 5.0000
v 3.0000 4.0000 3.0000
v 1.0000 4.0000 3.0000
v 3.0000 2.0000 3.0000
v 1.0000 2.0000 3.0000
f 1009 1011 1010
f 1011 1012 1010
f 1013 1015 1014
f 1015 1016 1014
f 1017 1019 1018
f 1019 1020 1018
f 1021 1023 1022
f 1023 1024 1022
f 1025 1027 1026
f 1027 1028 1026
f 1029 1031 1030
f 1031 1032 1030
v 5.0000 34.0000 3.0000
v 5.0000 34.0000 1.0000
v 5.0000 32.0000 3.0000
v 5.0000 32.0000 1.0000
v 3.0000 34.0000 1.0000
v 3.0000 34.0000 3.0000
v 3.0000 32.0000 1.0000
v 3.0000 32.0000 3.0000
v 3.0000 34.0000 1.0000
v 5.0000 34.0000 1.0000
v 3.0000 34.0000 3.0000
v 5.0000 34.0000 3.0000
v 3.0000 32.0000 3.0000
v 5.0000 32.0000 3.0000
v 3.0000 32.0000 1.0000
v 5.0000 32.0000 1.0000
v 3.0000 34.0000 3.0000
v 5.0000 34.0000 3.0000
v 3.0000 32.0000 3.0000
v 5.0000 32.0000 3.0000
v 5.0000 34.0000 1.0000
v 3.0000 34.0000 1.0000
v 5.0000 32.0000 1.0000
v 3.0000 32.0000 1.0000
f 1033 1035 1034
f 1035 1036 1034
f 1037 1039 1038
f 1039 1040 1038
f 1041 1043 1042
f 1043 1044 1042
f 1045 1047 1046
f 1047 1048 1046
f 1049 1051 1050
f 1051 1052 1050
f 1053 1055 1054
f 1055 1056 1054
v 5.0000 22.0000 -1.0000
v 5.0000 22.0000 -3.0000
v 5.0000 20.0000 -1.0000
v 5.0000 20.0000 -3.0000
v 3.0000 22.0000 -3.0000
v 3.0000 22.0000 -1.0000
v 3.0000 20.0000 -3.0000
v 3.0000 20.0000 -1.0000
v 3.0000 22.0000 -3.0000
v 5.0000 22.0000 -3.0000
v 3.0000 22.0000 -1.0000
v 5.0000 22.0000 -1.0000
v 3.0000 20.0000 -1.0000
v 5.0000 20.0000 -1.0000
v 3.0000 20.0000 -3.0000
v 5.0000 20.0000 -3.0000
v 3.0000 22.0000 -1.0000
v 5.0000 22.0000 -1.0000
v 3.0000 20.0000 -1.0000
v 5.0000 20.0000 -1.0000
v 5.0000 22.0000 -3.0000
v 3.0000 22.0000 -3.0000
v 5.0000 20.0000 -3.0000
v 3.0000 20.0000 -3.0000
f 1057 1059 1058
f 1059 1060 1058
f 1061 1063 1062
f 1063 1064 1062
f 1065 1067 1066
f 1067 1068 1066
f 1069 1071 1070
f 1071 1072 1070
f 1073 1075 1074
f 1075 1076 1074
f 1077 1079 1078
f 1079 1080 1078
v -1.0000 20.0000 1.0000
v -1.0000 20.0000 -1.0000
v -1.0000 18.0000 1.0000
v -1.0000 18.0000 -1.0000
v -3.0000 20.0000 -1.0000
v -3.0000 20.0000 1.0000
v -3.0000 18.0000 -1.0000
v -3.0000 18.0000 1.0000
v -3.0000 20.0000 -1.0000
v -1.0000 20.0000 -1.0000
v -3.0000 20.0000 1.0000
v -1.0000 20.0000 1.0000
v -3.0000 18.0000 1.0000
v -1.0000 18.0000 1.0000
v -3.0000 18.0000 -1.0000
v -1.0000 18.0000 -1.0000
v -3.0000 20.0000 1.0000
v -1.0000 20.0000 1.0000
v -3.0000 18.0000 1.0000
v -1.0000 18.0000 1.0000
v -1.0000 20.0000 -1.0000
v -3.0000 20.0000 -1.0000
v -1.0000 18.0000 -1.0000
v -3.0000 18.0000 -1.0000
f 1081 1083 1082
f 1083 1084 1082
f 1085 1087 1086
f 1087 1088 1086
f 1089 1091 1090
f 1091 1092 1090
f 1093 1095 1094
f 1095 1096 1094
f 1097 1099 1098
f 1099 1100 1098
f 1101 1103 1102
f 1103 1104 1102
v -3.0000 6.0000 -1.0000
v -3.0000 6.0000 -3.0000
v -3.0000 4.0000 -1.0000
v -3.0000 4.0000 -3.0000
v -5.0000 6.0000 -3.0000
v -5.0000 6.0000 -1.0000
v -5.0000 4.0000 -3.0000
v -5.0000 4.0000 -1.0000
v -5.0000 6.0000 -3.0000
v -3.0000 6.0000 -3.0000
v -5.0000 6.0000 -1.0000
v -3.0000 6.0000 -1.0000
v -5.0000 4.0000 -1.0000
v -3.0000 4.0000 -1.0000
v -5.0000 4.0000 -3.0000
v -3.0000 4.0000 -3.0000
v -5.0000 6.0000 -1.0000
v -3.0000 6.0000 -1.0000
v -5.0000 4.0000 -1.0000
v -3.0000 4.0000 -1.0000
v -3.0000 6.0000 -3.0000
v -5.0000 6.0000 -3.0000
v -3.0000 4.0000 -3.0000
v -5.0000 4.0000 -3.0000
f 1105 1107 1106
f 1107 1108 1106
f 1109 1111 1110
f 1111 1112 1110
f 1113 1115 1114
f 1115 1116 1114
f 1117 1119 1118
f 1119 1120 1118
f 1121 1123 1122
f 1123 1124 1122
f 1125 1127 1126
f 1127 1128 1126
v -1.0000 12.0000 -1.0000
v -1.0000 12.0000 -3.0000
v -1.0000 10.0000 -1.0000
v -1.0000 10.0000 -3.0000
v -3.0000 12.0000 -3.0000
v -3.0000 12.0000 -1.0000
v -3.0000 10.0000 -3.0000
v -3.0000 10.0000 -1.0000
v -3.0000 12.0000 -3.0000
v -1.0000 12.0000 -3.0000
v -3.0000 12.0000 -1.0000
v -1.0000 12.0000 -1.0000
v -3.0000 10.0000 -1.0000
v -1.0000 10.0000 -1.0000
v -3.0000 10.0000 -3.0000
v -1.0000 10.0000 -3.0000
v -3.0000 12.0000 -1.0000
v -1.0000 12.0000 -1.0000
v -3.0000 10.0000 -1.0000
v -1.0000 10.0000 -1.0000
v -1.0000 12.0000 -3.0000
v -3.0000 12.0000 -3.0000
v -1.0000 10.0000 -3.0000
v -3.0000 10.0000 -3.0000
f 1129 1131 1130
f 1131 1132 1130
f 1133 1135 1134
f 1135 1136 1134
f 1137 1139 1138
f 1139 1140 1138
f 1141 1143 1142
f 1143 1144 1142
f 1145 1147 1146
f 1147 1148 1146
f 1149 1151 1150
f 1151 1152 1150
v 5.0000 34.0000 5.0000
v 5.0000 34.0000 3.0000
v 5.0000 32.0000 5.0000
v 5.0000 32.0000 3.0000
v 3.0000 34.0000 3.0000
v 3.0000 34.0000 5.0000
v 3.0000 32.0000 3.0000
v 3.0000 32.0000 5.0000
v 3.0000 34.0000 3.0000
v 5.0000 34.0000 3.0000
v 3.0000 34.0000 5.0000
v 5.0000 34.0000 5.0000
v 3.0000 32.0000 5.0000
v 5.0000 32.0000 5.0000
v 3.0000 32.0000 3.0000
v 5.0000 32.0000 3.0000
v 3.0000 34.0000 5.0000
v 5.0000 34.0000 5.0000
v 3.0000 32.0000 5.0000
v 5.0000 32.0000 5.0000
v 5.0000 34.0000 3.0000
v 3.0000 34.0000 3.0000
v 5.0000 32.0000 3.0000
v 3.0000 32.0000 3.0000
f 1153 1155 1154
f 1155 1156 1154
f 1157 1159 1158
f 1159 1160 1158
f 1161 1163 1162
f 1163 1164 1162
f 1165 1167 1166
f 1167 1168 1166
f 1169 1171 1170
f 1171 1172 1170
f 1173 1175 1174
f 1175 1176 1174
v 3.0000 6.0000 -1.0000
v 3.0000 6.0000 -3.0000
v 3.0000 4.0000 -1.0000
v 3.0000 4.0000 -3.0000
v 1.0000 6.0000 -3.0000
v 1.0000 6.0000 -1.0000
v 1.0000 4.0000 -3.0000
v 1.0000 4.0000 -1.0000
v 1.0000 6.0000 -3.0000
v 3.0000 6.0000 -3.0000
v 1.0000 6.0000 -1.0000
v 3.0000 6.0000 -1.0000
v 1.0000 4.0000 -1.0000
v 3.0000 4.0000 -1.0000
v 1.0000 4.0000 -3.0000
v 3.0000 4.0000 -3.0000
v 1.0000 6.0000 -1.0000
v 3.0000 6.0000 -1.0000
v 1.0000 4.0000 -1.0000
v 3.0000 4.0000 -1.0000
v 3.0000 6.0000 -3.0000
v 1.0000 6.0000 -3.0000
v 3.0000 4.0000 -3.0000
v 1.0000 4.0000 -3.0000
f 1177 1179 1178
f 1179 1180 1178
f 1181 1183 1182
f 1183 1184 1182
f 1185 1187 1186
f 1187 1188 1186
f 1189 1191 1190
f 1191 1192 1190
f 1193 1195 1194
f 1195 1196 1194
f 1197 1199 1198
f 1199 1200 1198
v 1.0000 22.0000 -1.0000
v 1.0000 22.0000 -3.0000
v 1.0000 20.0000 -1.0000
v 1.0000 20.0000 -3.0000
v -1.0000 22.0000 -3.0000
v -1.0000 22.0000 -1.0000
v -1.0000 20.0000 -3.0000
v -1.0000 20.0000 -1.0000
v -1.0000 22.0000 -3.0000
v 1.0000 22.0000 -3.0000
v -1.0000 22.0000 -1.0000
v 1.0000 22.0000 -1.0000
v -1.0000 20.0000 -1.0000
v 1.0000 20.0000 -1.0000
v -1.0000 20.0000 -3.0000
v 1.0000 20.0000 -3.0000
v -1.0000 22.0000 -1.0000
v 1.0000 22.0000 -1.0000
v -1.0000 20.0000 -1.0000
v 1.0000 20.0000 -1.0000
v 1.0000 22.0000 -3.0000
v -1.0000 22.0000 -3.0000
v 1.0000 20.0000 -3.0000
v -1.0000 20.0000 -3.0000
f 1201 1203 1202
f 1203 1204 1202
f 1205 1207 1206
f 1207 1208 1206
f 1209 1211 1210
f 1211 1212 1210
f 1213 1215 1214
f 1215 1216 1214
f 1217 1219 1218
f 1219 1220 1218
f 1221 1223 1222
f 1223 1224 1222
v 1.0000 26.0000 3.0000
v 1.0000 26.0000 1.0000
v 1.0000 24.0000 3.0000
v 1.0000 24.0000 1.0000
v -1.0000 26.0000 1.0000
v -1.0000 26.0000 3.0000
v -1.0000 24.0000 1.0000
v -1.0000 24.0000 3.0000
v -1.0000 26.0000 1.0000
v 1.0000 26.0000 1.0000
v -1.0000 26.0000 3.0000
v 1.0000 26.0000 3.0000
v -1.0000 24.0000 3.0000
v 1.0000 24.0000 3.0000
v -1.0000 24.0000 1.0000
v 1.0000 24.0000 1.0000
v -1.0000 26.0000 3.0000
v 1.0000 26.0000 3.0000
v -1.0000 24.0000 3.0000
v 1.0000 24.0000 3.0000
v 1.0000 26.0000 1.0000
v -1.0000 26.0000 1.0000
v 1.0000 24.0000 1.0000
v -1.0000 24.0000 1.0000
f 1225 1227 1226
f 1227 1228 1226
f 1229 1231 1230
f 1231 1232 1230
f 1233 1235 1234
f 1235 1236 1234
f 1237 1239 1238
f 1239 1240 1238
f 1241 1243 1242
f 1243 1244 1242
f 1245 1247 1246
f 1247 1248 1246
v 3.0000 26.0000 1.0000
v 3.0000 26.0000 -1.0000
v 3.0000 24.0000 1.0000
v 3.0000 24.0000 -1.0000
v 1.0000 26.0000 -1.0000
v 1.0000 26.0000 1.0000
v 1.0000 24.0000 -1.0000
v 1.0000 24.0000 1.0000
v 1.0000 26.0000 -1.0000
v 3.0000 26.0000 -1.0000
v 1.0000 26.0000 1.0000
v 3.0000 26.0000 1.0000
v 1.0000 24.0000 1.0000
v 3.0000 24.0000 1.0000
v 1.0000 24.0000 -1.0000
v 3.0000 24.0000 -1.0000
v 1.0000 26.0000 1.0000
v 3.0000 26.0000 1.0000
v 1.0000 24.0000 1.0000
v 3.0000 24.0000 1.0000
v 3.0000 26.0000 -1.0000
v 1.0000 26.0000 -1.0000
v 3.0000 24.0000 -1.0000
v 1.0000 24.0000 -1.0000
f 1249 1251 1250
f 1251 1252 1250
f 1253 1255 1254
f 1255 1256 1254
f 1257 1259 1258
f 1259 1260 1258
f 1261 1263 1262
f 1263 1264 1262
f 1265 1267 1266
f 1267 1268 1266
f 1269 1271 1270
f 1271 1272 1270
v 1.0000 2.0000 1.0000
v 1.0000 2.0000 -1.0000
v 1.0000 0.0000 1.0000
v 1.0000 0.0000 -1.0000
v -1.0000 2.0000 -1.0000
v -1.0000 2.0000 1.0000
v -1.0000 0.0000 -1.0000
v -1.0000 0.0000 1.0000
v -1.0000 2.0000 -1.0000
v 1.0000 2.0000 -1.0000
v -1.0000 2.0000 1.0000
v 1.0000 2.0000 1.0000
v -1.0000 0.0000 1.0000
v 1.0000 0.0000 1.0000
v -1.0000 0.0000 -1.0000
v 1.0000 0.0000 -1.0000
v -1.0000 2.0000 1.0000
v 1.0000 2.0000 1.0000
v -1.0000 0.0000 1.0000
v 1.0000 0.0000 1.0000
v 1.0000 2.0000 -1.0000
v -1.0000 2.0000 -1.0000
v 1.0000 0.0000 -1.0000
v -1.0000 0.0000 -1.0000
f 1273 1275 1274
f 1275 1276 1274
f 1277 1279 1278
f 1279 1280 1278
f 1281 1283 1282
f 1283 1284 1282
f 1285 1287 1286
f 1287 1288 1286
f 1289 1291 1290
f 1291 1292 1290
f 1293 1295 1294
f 1295 1296 1294
v 3.0000 6.0000 5.0000
v 3.0000 6.0000 3.0000
v 3.0000 4.0000 5.0000
v 3.0000 4.0000 3.0000
v 1.0000 6.0000 3.0000
v 1.0000 6.0000 5.0000
v 1.0000 4.0000 3.0000
v 1.0000 4.0000 5.0000
v 1.0000 6.0000 3.0000
v 3.0000 6.0000 3.0000
v 1.0000 6.0000 5.0000
v 3.0000 6.0000 5.0000
v 1.0000 4.0000 5.0000
v 3.0000 4.0000 5.0000
v 1.0000 4.0000 3.0000
v 3.0000 4.0000 3.0000
v 1.0000 6.0000 5.0000
v 3.0000 6.0000 5.0000
v 1.0000 4.0000 5.0000
v 3.0000 4.0000 5.0000
v 3.0000 6.0000 3.0000
v 1.0000 6.0000 3.0000
v 3.0000 4.0000 3.0000
v 1.0000 4.0000 3.0000
f 1297 1299 1298
f 1299 1300 1298
f 1301 1303 1302
f 1303 1304 1302
f 1305 1307 1306
f 1307 1308 1306
f 1309 1311 1310
f 1311 1312 1310
f 1313 1315 1314
f 1315 1316 1314
f 1317 1319 1318
f 1319 1320 1318
v 3.0000 30.0000 1.0000
v 3.0000 30.0000 -1.0000
v 3.0000 28.0000 1.0000
v 3.0000 28.0000 -1.0000
v 1.0000 30.0000 -1.0000
v 1.0000 30.0000 1.0000
v 1.0000 28.0000 -1.0000
v 1.0000 28.0000 1.0000
v 1.0000 30.0000 -1.0000
v 3.0000 30.0000 -1.0000
v 1.0000 30.0000 1.0000
v 3.0000 30.0000 1.0000
v 1.0000 28.0000 1.0000
v 3.0000 28.0000 1.0000
v 1.0000 28.0000 -1.0000
v 3.0000 28.0000 -1.0000
v 1.0000 30.0000 1.0000
v 3.0000 30.0000 1.0000
v 1.0000 28.0000 1.0000
v 3.0000 28.0000 1.0000
v 3.0000 30.0000 -1.0000
v 1.0000 30.0000 -1.0000
v 3.0000 28.0000 -1.0000
v 1.0000 28.0000 -1.0000
f 1321 1323 1322
f 1323 1324 1322
f 1325 1327 1326
f 1327 1328 1326
f 1329 1331 1330
f 1331 1332 1330
f 1333 1335 1334
f 1335 1336 1334
f 1337 1339 1338
f 1339 1340 1338
f 1341 1343 1342
f 1343 1344 1342
v 1.0000 2.0000 3.0000
v 1.0000 2.0000 1.0000
v 1.0000 0.0000 3.0000
v 1.0000 0.0000 1.0000
v -1.0000 2.0000 1.0000
v -1.0000 2.0000 3.0000
v -1.0000 0.0000 1.0000
v -1.0000 0.0000 3.0000
v -1.0000 2.0000 1.0000
v 1.0000 2.0000 1.0000
v -1.0000 2.0000 3.0000
v 1.0000 2.0000 3.0000
v -1.0000 0.0000 3.0000
v 1.0000 0.0000 3.0000
v -1.0000 0.0000 1.0000
v 1.0000 0.0000 1.0000
v -1.0000 2.0000 3.0000
v 1.0000 2.0000 3.0000
v -1.0000 0.0000 3.0000
v 1.0000 0.0000 3.0000
v 1.0000 2.0000 1.0000
v -1.0000 2.0000 1.0000
v 1.0000 0.0000 1.0000
v -1.0000 0.0000 1.0000
f 1345 1347 1346
f 1347 1348 1346
f 1349 1351 1350
f 1351 1352 1350
f 1353 1355 1354
f 1355 1356 1354
f 1357 1359 1358
f 1359 1360 1358
f 1361 1363 1362
f 1363 1364 1362
f 1365 1367 1366
f 1367 1368 1366
v 1.0000 12.0000 1.0000
v 1.0000 12.0000 -1.0000
v 1.0000 10.0000 1.0000
v 1.0000 10.0000 -1.0000
v -1.0000 12.0000 -1.0000
v -1.0000 12.0000 1.0000
v -1.0000 10.0000 -1.0000
v -1.0000 10.0000 1.0000
v -1.0000 12.0000 -1.0000
v 1.0000 12.0000 -1.0000
v -1.0000 12.0000 1.0000
v 1.0000 12.0000 1.0000
v -1.0000 10.0000 1.0000
v 1.0000 10.0000 1.0000
v -1.0000 10.0000 -1.0000
v 1.0000 10.0000 -1.0000
v -1.0000 12.0000 1.0000
v 1.0000 12.0000 1.0000
v -1.0000 10.0000 1.0000
v 1.0000 10.0000 1.0000
v 1.0000 12.0000 -1.0000
v -1.0000 12.0000 -1.0000
v 1.0000 10.0000 -1.0000
v -1.0000 10.0000 -1.0000
f 1369 1371 1370
f 1371 1372 1370
f 1373 1375 1374
f 1375 1376 1374
f 1377 1379 1378
f 1379 1380 1378
f 1381 1383 1382
f 1383 1384 1382
f 1385 1387 1386
f 1387 1388 1386
f 1389 1391 1390
f 1391 1392 1390
v 3.0000 14.0000 -1.0000
v 3.0000 14.0000 -3.0000
v 3.0000 12.0000 -1.0000
v 3.0000 12.0000 -3.0000
v 1.0000 14.0000 -3.0000
v 1.0000 14.0000 -1.0000
v 1.0000 12.0000 -3.0000
v 1.0000 12.0000 -1.0000
v 1.0000 14.0000 -3.0000
v 3.0000 14.0000 -3.0000
v 1.0000 14.0000 -1.0000
v 3.0000 14.0000 -1.0000
v 1.0000 12.0000 -1.0000
v 3.0000 12.0000 -1.0000
v 1.0000 12.0000 -3.0000
v 3.0000 12.0000 -3.0000
v 1.0000 14.0000 -1.0000
v 3.0000 14.0000 -1.0000
v 1.0000 12.0000 -1.0000
v 3.0000 12.0000 -1.0000
v 3.0000 14.0000 -3.0000
v 1.0000 14.0000 -3.0000
v 3.0000 12.0000 -3.0000
v 1.0000 12.0000 -3.0000
f 1393 1395 1394
f 1395 1396 1394
f 1397 1399 1398
f 1399 1400 1398
f 1401 1403 1402
f 1403 1404 1402
f 1405 1407 1406
f 1407 1408 1406
f 1409 1411 1410
f 1411 1412 1410
f 1413 1415 1414
f 1415 1416 1414
v 1.0000 32.0000 3.0000
v 1.0000 32.0000 1.0000
v 1.0000 30.0000 3.0000
v 1.0000 30.0000 1.0000
v -1.0000 32.0000 1.0000
v -1.0000 32.0000 3.0000
v -1.0000 30.0000 1.0000
v -1.0000 30.0000 3.0000
v -1.0000 32.0000 1.0000
v 1.0000 32.0000 1.0000
v -1.0000 32.0000 3.0000
v 1.0000 32.0000 3.0000
v -1.0000 30.0000 3.0000
v 1.0000 30.0000 3.0000
v -1.0000 30.0000 1.0000
v 1.0000 30.0000 1.0000
v -1.0000 32.0000 3.0000
v 1.0000 32.0000 3.0000
v -1.0000 30.0000 3.0000
v 1.0000 30.0000 3.0000
v 1.0000 32.0000 1.0000
v -1.0000 32.0000 1.0000
v 1.0000 30.0000 1.0000
v -1.0000 30.0000 1.0000
f 1417 1419 1418
f 1419 1420 1418
f 1421 1423 1422
f 1423 1424 1422
f 1425 1427 1426
f 1427 1428 1426
f 1429 1431 1430
f 1431 1432 1430
f 1433 1435 1434
f 1435 1436 1434
f 1437 1439 1438
f 1439 1440 1438
v 3.0000 6.0000 -3.0000
v 3.0000 6.0000 -5.0000
v 3.0000 4.0000 -3.0000
v 3.0000 4.0000 -5.0000
v 1.0000 6.0000 -5.0000
v 1.0000 6.0000 -3.0000
v 1.0000 4.0000 -5.0000
v 1.0000 4.0000 -3.0000
v 1.0000 6.0000 -5.0000
v 3.0000 6.0000 -5.0000
v 1.0000 6.0000 -3.0000
v 3.0000 6.0000 -3.0000
v 1.0000 4.0000 -3.0000
v 3.0000 4.0000 -3.0000
v 1.0000 4.0000 -5.0000
v 3.0000 4.0000 -5.0000
v 1.0000 6.0000 -3.0000
v 3.0000 6.0000 -3.0000
v 1.0000 4.0000 -3.0000
v 3.0000 4.0000 -3.0000
v 3.0000 6.0000 -5.0000
v 1.0000 6.0000 -5.0000
v 3.0000 4.0000 -5.0000
v 1.0000 4.0000 -5.0000
f 1441 1443 1442
f 1443 1444 1442
f 1445 1447 1446
f 1447 1448 1446
f 1449 1451 1450
f 1451 1452 1450
f 1453 1455 1454
f 1455 1456 1454
f 1457 1459 1458
f 1459 1460 1458
f 1461 1463 1462
f 1463 1464 1462
v -1.0000 14.0000 -3.0000
v -1.0000 14.0000 -5.0000
v -1.0000 12.0000 -3.0000
v -1.0000 12.0000 -5.0000
v -3.0000 14.0000 -5.0000
v -3.0000 14.0000 -3.0000
v -3.0000 12.0000 -5.0000
v -3.0000 12.0000 -3.0000
v -3.0000 14.0000 -5.0000
v -1.0000 14.0000 -5.0000
v -3.0000 14.0000 -3.0000
v -1.0000 14.0000 -3.0000
v -3.0000 12.0000 -3.0000
v -1.0000 12.0000 -3.0000
v -3.0000 12.0000 -5.0000
v -1.0000 12.0000 -5.0000
v -3.0000 14.0000 -3.0000
v -1.0000 14.0000 -3.0000
v -3.0000 12.0000 -3.0000
v -1.0000 12.0000 -3.0000
v -1.0000 14.0000 -5.0000
v -3.0000 14.0000 -5.0000
v -1.0000 12.0000 -5.0000
v -3.0000 12.0000 -5.0000
f 1465 1467 1466
f 1467 1468 1466
f 1469 1471 1470
f 1471 1472 1470
f 1473 1475 1474
f 1475 1476 1474
f 1477 1479 1478
f 1479 1480 1478
f 1481 1483 1482
f 1483 1484 1482
f 1485 1487 1486
f 1487 1488 1486
v -1.0000 10.0000 -1.0000
v -1.0000 10.0000 -3.0000
v -1.0000 8.0000 -1.0000
v -1.0000 8.0000 -3.0000
v -3.0000 10.0000 -3.0000
v -3.0000 10.0000 -1.0000
v -3.0000 8.0000 -3.0000
v -3.0000 8.0000 -1.0000
v -3.0000 10.0000 -3.0000
v -1.0000 10.0000 -3.0000
v -3.0000 10.0000 -1.0000
v -1.0000 10.0000 -1.0000
v -3.0000 8.0000 -1.0000
v -1.0000 8.0000 -1.0000
v -3.0000 8.0000 -3.0000
v -1.0000 8.0000 -3.0000
v -3.0000 10.0000 -1.0000
v -1.0000 10.0000 -1.0000
v -3.0000 8.0000 -1.0000
v -1.0000 8.0000 -1.0000
v -1.0000 10.0000 -3.0000
v -3.0000 10.0000 -3.0000
v -1.0000 8.0000 -3.0000
v -3.0000 8.0000 -3.0000
f 1489 1491 1490
f 1491 1492 1490
f 1493 1495 1494
f 1495 1496 1494
f 1497 1499 1498
f 1499 1500 1498
f 1501 1503 1502
f 1503 1504 1502
f 1505 1507 1506
f 1507 1508 1506
f 1509 1511 1510
f 1511 1512 1510
v -1.0000 18.0000 1.0000
v -1.0000 18.0000 -1.0000
v -1.0000 16.0000 1.0000
v -1.0000 16.0000 -1.0000
v -3.0000 18.0000 -1.0000
v -3.0000 18.0000 1.0000
v -3.0000 16.0000 -1.0000
v -3.0000 16.0000 1.0000
v -3.0000 18.0000 -1.0000
v -1.0000 18.0000 -1.0000
v -3.0000 18.0000 1.0000
v -1.0000 18.0000 1.0000
v -3.0000 16.0000 1.0000
v -1.0000 16.0000 1.0000
v -3.0000 16.0000 -1.0000
v -1.0000 16.0000 -1.0000
v -3.0000 18.0000 1.0000
v -1.0000 18.0000 1.0000
v -3.0000 16.0000 1.0000
v -1.0000 16.0000 1.0000
v -1.0000 18.0000 -1.0000
v -3.0000 18.0000 -1.0000
v -1.0000 16.0000 -1.0000
v -3.0000 16.0000 -1.0000
f 1513 1515 1514
f 1515 1516 1514
f 1517 1519 1518
f 1519 1520 1518
f 1521 1523 1522
f 1523 1524 1522
f 1525 1527 1526
f 1527 1528 1526
f 1529 1531 1530
f 1531 1532 1530
f 1533 1535 1534
f 1535 1536 1534
v -1.0000 6.0000 -1.0000
v -1.0000 6.0000 -3.0000
v -1.0000 4.0000 -1.0000
v -1.0000 4.0000 -3.0000
v -3.0000 6.0000 -3.0000
v -3.0000 6.0000 -1.0000
v -3.0000 4.0000 -3.0000
v -3.0000 4.0000 -1.0000
v -3.0000 6.0000 -3.0000
v -1.0000 6.0000 -3.0000
v -3.0000 6.0000 -1.0000
v -1.0000 6.0000 -1.0000
v -3.0000 4.0000 -1.0000
v -1.0000 4.0000 -1.0000
v -3.0000 4.0000 -3.0000
v -1.0000 4.0000 -3.0000
v -3.0000 6.0000 -1.0000
v -1.0000 6.0000 -1.0000
v -3.0000 4.0000 -1.0000
v -1.0000 4.0000 -1.0000
v -1.0000 6.0000 -3.0000
v -3.0000 6.0000 -3.0000
v -1.0000 4.0000 -3.0000
v -3.0000 4.0000 -3.0000
f 1537 1539 1538
f 1539 1540 1538
f 1541 1543 1542
f 1543 1544 1542
f 1545 1547 1546
f 1547 1548 1546
f 1549 1551 1550
f 1551 1552 1550
f 1553 1555 1554
f 1555 1556 1554
f 1557 1559 1558
f 1559 1560 1558
v 7.0000 34.0000 3.0000
v 7.0000 34.0000 1.0000
v 7.0000 32.0000 3.0000
v 7.0000 32.0000 1.0000
v 5.0000 34.0000 1.0000
v 5.0000 34.0000 3.0000
v 5.0000 32.0000 1.0000
v 5.0000 32.0000 3.0000
v 5.0000 34.0000 1.0000
v 7.0000 34.0000 1.0000
v 5.0000 34.0000 3.0000
v 7.0000 34.0000 3.0000
v 5.0000 32.0000 3.0000
v 7.0000 32.0000 3.0000
v 5.0000 32.0000 1.0000
v 7.0000 32.0000 1.0000
v 5.0000 34.0000 3.0000
v 7.0000 34.0000 3.0000
v 5.0000 32.0000 3.0000
v 7.0000 32.0000 3.0000
v 7.0000 34.0000 1.0000
v 5.0000 34.0000 1.0000
v 7.0000 32.0000 1.0000
v 5.0000 32.0000 1.0000
f 1561 1563 1562
f 1563 1564 1562
f 1565 1567 1566
f 1567 1568 1566
f 1569 1571 1570
f 1571 1572 1570
f 1573 1575 1574
f 1575 1576 1574
f 1577 1579 1578
f 1579 1580 1578
f 1581 1583 1582
f 1583 1584 1582
v -1.0000 12.0000 -5.0000
v -1.0000 12.0000 -7.0000
v -1.0000 10.0000 -5.0000
v -1.0000 10.0000 -7.0000
v -3.0000 12.0000 -7.0000
v -3.0000 12.0000 -5.0000
v -3.0000 10.0000 -7.0000
v -3.0000 10.0000 -5.0000
v -3.0000 12.0000 -7.0000
v -1.0000 12.0000 -7.0000
v -3.0000 12.0000 -5.0000
v -1.0000 12.0000 -5.0000
v -3.0000 10.0000 -5.0000
v -1.0000 10.0000 -5.0000
v -3.0000 10.0000 -7.0000
v -1.0000 10.0000 -7.0000
v -3.0000 12.0000 -5.0000
v -1.0000 12.0000 -5.0000
v -3.0000 10.0000 -5.0000
v -1.0000 10.0000 -5.0000
v -1.0000 12.0000 -7.0000
v -3.0000 12.0000 -7.0000
v -1.0000 10.0000 -7.0000
v -3.0000 10.0000 -7.0000
f 1585 1587 1586
f 1587 1588 1586
f 1589 1591 1590
f 1591 1592 1590
f 1593 1595 1594
f 1595 1596 1594
f 1597 1599 1598
f 1599 1600 1598
f 1601 1603 1602
f 1603 1604 1602
f 1605 1607 1606
f 1607 1608 1606
v 3.0000 8.0000 -1.0000
v 3.0000 8.0000 -3.0000
v 3.0000 6.0000 -1.0000
v 3.0000 6.0000 -3.0000
v 1.0000 8.0000 -3.0000
v 1.0000 8.0000 -1.0000
v 1.0000 6.0000 -3.0000
v 1.0000 6.0000 -1.0000
v 1.0000 8.0000 -3.0000
v 3.0000 8.0000 -3.0000
v 1.0000 8.0000 -1.0000
v 3.0000 8.0000 -1.0000
v 1.0000 6.0000 -1.0000
v 3.0000 6.0000 -1.0000
v 1.0000 6.0000 -3.0000
v 3.0000 6.0000 -3.0000
v 1.0000 8.0000 -1.0000
v 3.0000 8.0000 -1.0000
v 1.0000 6.0000 -1.0000
v 3.0000 6.0000 -1.0000
v 3.0000 8.0000 -3.0000
v 1.0000 8.0000 -3.0000
v 3.0000 6.0000 -3.0000
v 1.0000 6.0000 -3.0000
f 1609 1611 1610
f 1611 1612 1610
f 1613 1615 1614
f 1615 1616 1614
f 1617 1619 1618
f 1619 1620 1618
f 1621 1623 1622
f 1623 1624 1622
f 1625 1627 1626
f 1627 1628 1626
f 1629 1631 1630
f 1631 1632 1630
v 1.0000 22.0000 -3.0000
v 1.0000 22.0000 -5.0000
v 1.0000 20.0000 -3.0000
v 1.0000 20.0000 -5.0000
v -1.0000 22.0000 -5.0000
v -1.0000 22.0000 -3.0000
v -1.0000 20.0000 -5.0000
v -1.0000 20.0000 -3.0000
v -1.0000 22.0000 -5.0000
v 1.0000 22.0000 -5.0000
v -1.0000 22.0000 -3.0000
v 1.0000 22.0000 -3.0000
v -1.0000 20.0000 -3.0000
v 1.0000 20.0000 -3.0000
v -1.0000 20.0000 -5.0000
v 1.0000 20.0000 -5.0000
v -1.0000 22.0000 -3.0000
v 1.0000 22.0000 -3.0000
v -1.0000 20.0000 -3.0000
v 1.0000 20.0000 -3.0000
v 1.0000 22.0000 -5.0000
v -1.0000 22.0000 -5.0000
v 1.0000 20.0000 -5.0000
v -1.0000 20.0000 -5.0000
f 1633 1635 1634
f 1635 1636 1634
f 1637 1639 1638
f 1639 1640 1638
f 1641 1643 1642
f 1643 1644 1642
f 1645 1647 1646
f 1647 1648 1646
f 1649 1651 1650
f 1651 1652 1650
f 1653 1655 1654
f 1655 1656 1654
v 5.0000 30.0000 1.0000
v 5.0000 30.0000 -1.0000
v 5.0000 28.0000 1.0000
v 5.0000 28.0000 -1.0000
v 3.0000 30.0000 -1.0000
v 3.0000 30.0000 1.0000
v 3.0000 28.0000 -1.0000
v 3.0000 28.0000 1.0000
v 3.0000 30.0000 -1.0000
v 5.0000 30.0000 -1.0000
v 3.0000 30.0000 1.0000
v 5.0000 30.0000 1.0000
v 3.0000 28.0000 1.0000
v 5.0000 28.0000 1.0000
v 3.0000 28.0000 -1.0000
v 5.0000 28.0000 -1.0000
v 3.0000 30.0000 1.0000
v 5.0000 30.0000 1.0000
v 3.0000 28.0000 1.0000
v 5.0000 28.0000 1.0000
v 5.0000 30.0000 -1.0000
v 3.0000 30.0000 -1.0000
v 5.0000 28.0000 -1.0000
v 3.0000 28.0000 -1.0000
f 1657 1659 1658
f 1659 1660 1658
f 1661 1663 1662
f 1663 1664 1662
f 1665 1667 1666
f 1667 1668 1666
f 1669 1671 1670
f 1671 1672 1670
f 1673 1675 1674
f 1675 1676 1674
f 1677 1679 1678
f 1679 1680 1678
v -1.0000 20.0000 3.0000
v -1.0000 20.0000 1.0000
v -1.0000 18.0000 3.0000
v -1.0000 18.0000 1.0000
v -3.0000 20.0000 1.0000
v -3.0000 20.0000 3.0000
v -3.0000 18.0000 1.0000
v -3.0000 18.0000 3.0000
v -3.0000 20.0000 1.0000
v -1.0000 20.0000 1.0000
v -3.0000 20.0000 3.0000
v -1.0000 20.0000 3.0000
v -3.0000 18.0000 3.0000
v -1.0000 18.0000 3.0000
v -3.0000 18.0000 1.0000
v -1.0000 18.0000 1.0000
v -3.0000 20.0000 3.0000
v -1.0000 20.0000 3.0000
v -3.0000 18.0000 3.0000
v -1.0000 18.0000 3.0000
v -1.0000 20.0000 1.0000
v -3.0000 20.0000 1.0000
v -1.0000 18.0000 1.0000
v -3.0000 18.0000 1.0000
f 1681 1683 1682
f 1683 1684 1682
f 1685 1687 1686
f 1687 1688 1686
f 1689 1691 1690
f 1691 1692 1690
f 1693 1695 1694
f 1695 1696 1694
f 1697 1699 1698
f 1699 1700 1698
f 1701 1703 1702
f 1703 1704 1702
v -3.0000 2.0000 1.0000
v -3.0000 2.0000 -1.0000
v -3.0000 0.0000 1.0000
v -3.0000 0.0000 -1.0000
v -5.0000 2.0000 -1.0000
v -5.0000 2.0000 1.0000
v -5.0000 0.0000 -1.0000
v -5.0000 0.0000 1.0000
v -5.0000 2.0000 -1.0000
v -3.0000 2.0000 -1.0000
v -5.0000 2.0000 1.0000
v -3.0000 2.0000 1.0000
v -5.0000 0.0000 1.0000
v -3.0000 0.0000 1.0000
v -5.0000 0.0000 -1.0000
v -3.0000 0.0000 -1.0000
v -5.0000 2.0000 1.0000
v -3.0000 2.0000 1.0000
v -5.0000 0.0000 1.0000
v -3.0000 0.0000 1.0000
v -3.0000 2.0000 -1.0000
v -5.0000 2.0000 -1.0000
v -3.0000 0.0000 -1.0000
v -5.0000 0.0000 -1.0000
f 1705 1707 1706
f 1707 1708 1706
f 1709 1711 1710
f 1711 1712 1710
f 1713 1715 1714
f 1715 1716 1714
f 1717 1719 1718
f 1719 1720 1718
f 1721 1723 1722
f 1723 1724 1722
f 1725 1727 1726
f 1727 1728 1726
v 1.0000 28.0000 1.0000
v 1.0000 28.0000 -1.0000
v 1.0000 26.0000 1.0000
v 1.0000 26.0000 -1.0000
v -1.0000 28.0000 -1.0000
v -1.0000 28.0000 1.0000
v -1.0000 26.0000 -1.0000
v -1.0000 26.0000 1.0000
v -1.0000 28.0000 -1.0000
v 1.0000 28.0000 -1.0000
v -1.0000 28.0000 1.0000
v 1.0000 28.0000 1.0000
v -1.0000 26.0000 1.0000
v 1.0000 26.0000 1.0000
v -1.0000 26.0000 -1.0000
v 1.0000 26.0000 -1.0000
v -1.0000 28.0000 1.0000
v 1.0000 28.0000 1.0000
v -1.0000 26.0000 1.0000
v 1.0000 26.0000 1.0000
v 1.0000 28.0000 -1.0000
v -1.0000 28.0000 -1.0000
v 1.0000 26.0000 -1.0000
v -1.0000 26.0000 -1.0000
f 1729 1731 1730
f 1731 1732 1730
f 1733 1735 1734
f 1735 1736 1734
f 1737 1739 1738
f 1739 1740 1738
f 1741 1743 1742
f 1743 1744 1742
f 1745 1747 1746
f 1747 1748 1746
f 1749 1751 1750
f 1751 1752 1750
v 1.0000 22.0000 3.0000
v 1.0000 22.0000 1.0000
v 1.0000 20.0000 3.0000
v 1.0000 20.0000 1.0000
v -1.0000 22.0000 1.0000
v -1.0000 22.0000 3.0000
v -1.0000 20.0000 1.0000
v -1.0000 20.0000 3.0000
v -1.0000 22.0000 1.0000
v 1.0000 22.0000 1.0000
v -1.0000 22.0000 3.0000
v 1.0000 22.0000 3.0000
v -1.0000 20.0000 3.0000
v 1.0000 20.0000 3.0000
v -1.0000 20.0000 1.0000
v 1.0000 20.0000 1.0000
v -1.0000 22.0000 3.0000
v 1.0000 22.0000 3.0000
v -1.0000 20.0000 3.0000
v 1.0000 20.0000 3.0000
v 1.0000 22.0000 1.0000
v -1.0000 22.0000 1.0000
v 1.0000 20.0000 1.0000
v -1.0000 20.0000 1.0000
f 1753 1755 1754
f 1755 1756 1754
f 1757 1759 1758
f 1759 1760 1758
f 1761 1763 1762
f 1763 1764 1762
f 1765 1767 1766
f 1767 1768 1766
f 1769 1771 1770
f 1771 1772 1770
f 1773 1775 1774
f 1775 1776 1774
v -1.0000 22.0000 1.0000
v -1.0000 22.0000 -1.0000
v -1.0000 20.0000 1.0000
v -1.0000 20.0000 -1.0000
v -3.0000 22.0000 -1.0000
v -3.0000 22.0000 1.0000
v -3.0000 20.0000 -1.0000
v -3.0000 20.0000 1.0000
v -3.0000 22.0000 -1.0000
v -1.0000 22.0000 -1.0000
v -3.0000 22.0000 1.0000
v -1.0000 22.0000 1.0000
v -3.0000 20.0000 1.0000
v -1.0000 20.0000 1.0000
v -3.0000 20.0000 -1.0000
v -1.0000 20.0000 -1.0000
v -3.0000 22.0000 1.0000
v -1.0000 22.0000 1.0000
v -3.0000 20.0000 1.0000
v -1.0000 20.0000 1.0000
v -1.0000 22.0000 -1.0000
v -3.0000 22.0000 -1.0000
v -1.0000 20.0000 -1.0000
v -3.0000 20.0000 -1.0000
f 1777 1779 1778
f 1779 1780 1778
f 1781 1783 1782
f 1783 1784 1782
f 1785 1787 1786
f 1787 1788 1786
f 1789 1791 1790
f 1791 1792 1790
f 1793 1795 1794
f 1795 1796 1794
f 1797 1799 1798
f 1799 1800 1798
v 3.0000 16.0000 -1.0000
v 3.0000 16.0000 -3.0000
v 3.0000 14.0000 -1.0000
v 3.0000 14.0000 -3.0000
v 1.0000 16.0000 -3.0000
v 1.0000 16.0000 -1.0000
v 1.0000 14.0000 -3.0000
v 1.0000 14.0000 -1.0000
v 1.0000 16.0000 -3.0000
v 3.0000 16.0000 -3.0000
v 1.0000 16.0000 -1.0000
v 3.0000 16.0000 -1.0000
v 1.0000 14.0000 -1.0000
v 3.0000 14.0000 -1.0000
v 1.0000 14.0000 -3.0000
v 3.0000 14.0000 -3.0000
v 1.0000 16.0000 -1.0000
v 3.0000 16.0000 -1.0000
v 1.0000 14.0000 -1.0000
v 3.0000 14.0000 -1.0000
v 3.0000 16.0000 -3.0000
v 1.0000 16.0000 -3.0000
v 3.0000 14.0000 -3.0000
v 1.0000 14.0000 -3.0000
f 1801 1803 1802
f 1803 1804 1802
f 1805 1807 1806
f 1807 1808 1806
f 1809 1811 1810
f 1811 1812 1810
f 1813 1815 1814
f 1815 1816 1814
f 1817 1819 1818
f 1819 1820 1818
f 1821 1823 1822
f 1823 1824 1822
v -3.0000 12.0000 -5.0000
v -3.0000 12.0000 -7.0000
v -3.0000 10.0000 -5.0000
v -3.0000 10.0000 -7.0000
v -5.0000 12.0000 -7.0000
v -5.0000 12.0000 -5.0000
v -5.0000 10.0000 -7.0000
v -5.0000 10.0000 -5.0000
v -5.0000 12.0000 -7.0000
v -3.0000 12.0000 -7.0000
v -5.0000 12.0000 -5.0000
v -3.0000 12.0000 -5.0000
v -5.0000 10.0000 -5.0000
v -3.0000 10.0000 -5.0000
v -5.0000 10.0000 -7.0000
v -3.0000 10.0000 -7.0000
v -5.0000 12.0000 -5.0000
v -3.0000 12.0000 -5.0000
v -5.0000 10.0000 -5.0000
v -3.0000 10.0000 -5.0000
v -3.0000 12.0000 -7.0000
v -5.0000 12.0000 -7.0000
v -3.0000 10.0000 -7.0000
v -5.0000 10.0000 -7.0000
f 1825 1827 1826
f 1827 1828 1826
f 1829 1831 1830
f 1831 1832 1830
f 1833 1835 1834
f 1835 1836 1834
f 1837 1839 1838
f 1839 1840 1838
f 1841 1843 1842
f 1843 1844 1842
f 1845 1847 1846
f 1847 1848 1846
v 1.0000 10.0000 1.0000
v 1.0000 10.0000 -1.0000
v 1.0000 8.0000 1.0000
v 1.0000 8.0000 -1.0000
v -1.0000 10.0000 -1.0000
v -1.0000 10.0000 1.0000
v -1.0000 8.0000 -1.0000
v -1.0000 8.0000 1.0000
v -1.0000 10.0000 -1.0000
v 1.0000 10.0000 -1.0000
v -1.0000 10.0000 1.0000
v 1.0000 10.0000 1.0000
v -1.0000 8.0000 1.0000
v 1.0000 8.0000 1.0000
v -1.0000 8.0000 -1.0000
v 1.0000 8.0000 -1.0000
v -1.0000 10.0000 1.0000
v 1.0000 10.0000 1.0000
v -1.0000 8.0000 1.0000
v 1.0000 8.0000 1.0000
v 1.0000 10.0000 -1.0000
v -1.0000 10.0000 -1.0000
v 1.0000 8.0000 -1.0000
v -1.0000 8.0000 -1.0000
f 1849 1851 1850
f 1851 1852 1850
f 1853 1855 1854
f 1855 1856 1854
f 1857 1859 1858
f 1859 1860 1858
f 1861 1863 1862
f 1863 1864 1862
f 1865 1867 1866
f 1867 1868 1866
f 1869 1871 1870
f 1871 1872 1870
v -1.0000 8.0000 1.0000
v -1.0000 8.0000 -1.0000
v -1.0000 6.0000 1.0000
v -1.0000 6.0000 -1.0000
v -3.0000 8.0000 -1.0000
v -3.0000 8.0000 1.0000
v -3.0000 6.0000 -1.0000
v -3.0000 6.0000 1.0000
v -3.0000 8.0000 -1.0000
v -1.0000 8.0000 -1.0000
v -3.0000 8.0000 1.0000
v -1.0000 8.0000 1.0000
v -3.0000 6.0000 1.0000
v -1.0000 6.0000 1.0000
v -3.0000 6.0000 -1.0000
v -1.0000 6.0000 -1.0000
v -3.0000 8.0000 1.0000
v -1.0000 8.0000 1.0000
v -3.0000 6.0000 1.0000
v -1.0000 6.0000 1.0000
v -1.0000 8.0000 -1.0000
v -3.0000 8.0000 -1.0000
v -1.0000 6.0000 -1.0000
v -3.0000 6.0000 -1.0000
f 1873 1875 1874
f 1875 1876 1874
f 1877 1879 1878
f 1879 1880 1878
f 1881 1883 1882
f 1883 1884 1882
f 1885 1887 1886
f 1887 1888 1886
f 1889 1891 1890
f 1891 1892 1890
f 1893 1895 1894
f 1895 1896 1894
v -1.0000 22.0000 3.0000
v -1.0000 22.0000 1.0000
v -1.0000 20.0000 3.0000
v -1.0000 20.0000 1.0000
v -3.0000 22.0000 1.0000
v -3.0000 22.0000 3.0000
v -3.0000 20.0000 1.0000
v -3.0000 20.0000 3.0000
v -3.0000 22.0000 1.0000
v -1.0000 22.0000 1.0000
v -3.0000 22.0000 3.0000
v -1.0000 22.0000 3.0000
v -3.0000 20.0000 3.0000
v -1.0000 20.0000 3.0000
v -3.0000 20.0000 1.0000
v -1.0000 20.0000 1.0000
v -3.0000 22.0000 3.0000
v -1.0000 22.0000 3.0000
v -3.0000 20.0000 3.0000
v -1.0000 20.0000 3.0000
v -1.0000 22.0000 1.0000
v -3.0000 22.0000 1.0000
v -1.0000 20.0000 1.0000
v -3.0000 20.0000 1.0000
f 1897 1899 1898
f 1899 1900 1898
f 1901 1903 1902
f 1903 1904 1902
f 1905 1907 1906
f 1907 1908 1906
f 1909 1911 1910
f 1911 1912 1910
f 1913 1915 1914
f 1915 1916 1914
f 1917 1919 1918
f 1919 1920 1918
v -1.0000 2.0000 3.0000
v -1.0000 2.0000 1.0000
v -1.0000 0.0000 3.0000
v -1.0000 0.0000 1.0000
v -3.0000 2.0000 1.0000
v -3.0000 2.0000 3.0000
v -3.0000 0.0000 1.0000
v -3.0000 0.0000 3.0000
v -3.0000 2.0000 1.0000
v -1.0000 2.0000 1.0000
v -3.0000 2.0000 3.0000
v -1.0000 2.0000 3.0000
v -3.0000 0.0000 3.0000
v -1.0000 0.0000 3.0000
v -3.0000 0.0000 1.0000
v -1.0000 0.0000 1.0000
v -3.0000 2.0000 3.0000
v -1.0000 2.0000 3.0000
v -3.0000 0.0000 3.0000
v -1.0000 0.0000 3.0000
v -1.0000 2.0000 1.0000
v -3.0000 2.0000 1.0000
v -1.0000 0.0000 1.0000
v -3.0000 0.0000 1.0000
f 1921 1923 1922
f 1923 1924 1922
f 1925 1927 1926
f 1927 1928 1926
f 1929 1931 1930
f 1931 1932 1930
f 1933 1935 1934
f 1935 1936 1934
f 1937 1939 1938
f 1939 1940 1938
f 1941 1943 1942
f 1943 1944 1942
v -1.0000 2.0000 1.0000
v -1.0000 2.0000 -1.0000
v -1.0000 0.0000 1.0000
v -1.0000 0.0000 -1.0000
v -3.0000 2.0000 -1.0000
v -3.0000 2.0000 1.0000
v -3.0000 0.0000 -1.0000
v -3.0000 0.0000 1.0000
v -3.0000 2.0000 -1.0000
v -1.0000 2.0000 -1.0000
v -3.0000 2.0000 1.0000
v -1.0000 2.0000 1.0000
v -3.0000 0.0000 1.0000
v -1.0000 0.0000 1.0000
v -3.0000 0.0000 -1.0000
v -1.0000 0.0000 -1.0000
v -3.0000 2.0000 1.0000
v -1.0000 2.0000 1.0000
v -3.0000 0.0000 1.0000
v -1.0000 0.0000 1.0000
v -1.0000 2.0000 -1.0000
v -3.0000 2.0000 -1.0000
v -1.0000 0.0000 -1.0000
v -3.0000 0.0000 -1.0000
f 1945 1947 1946
f 1947 1948 1946
f 1949 1951 1950
f 1951 1952 1950
f 1953 1955 1954
f 1955 1956 1954
f 1957 1959 1958
f 1959 1960 1958
f 1961 1963 1962
f 1963 1964 1962
f 1965 1967 1966
f 1967 1968 1966
v 1.0000 6.0000 5.0000
v 1.0000 6.0000 3.0000
v 1.0000 4.0000 5.0000
v 1.0000 4.0000 3.0000
v -1.0000 6.0000 3.0000
v -1.0000 6.0000 5.0000
v -1.0000 4.0000 3.0000
v -1.0000 4.0000 5.0000
v -1.0000 6.0000 3.0000
v 1.0000 6.0000 3.0000
v -1.0000 6.0000 5.0000
v 1.0000 6.0000 5.0000
v -1.0000 4.0000 5.0000
v 1.0000 4.0000 5.0000
v -1.0000 4.0000 3.0000
v 1.0000 4.0000 3.0000
v -1.0000 6.0000 5.0000
v 1.0000 6.0000 5.0000
v -1.0000 4.0000 5.0000
v 1.0000 4.0000 5.0000
v 1.0000 6.0000 3.0000
v -1.0000 6.0000 3.0000
v 1.0000 4.0000 3.0000
v -1.0000 4.0000 3.0000
f 1969 1971 1970
f 1971 1972 1970
f 1973 1975 1974
f 1975 1976 1974
f 1977 1979 1978
f 1979 1980 1978
f 1981 1983 1982
f 1983 1984 1982
f 1985 1987 1986
f 1987 1988 1986
f 1989 1991 1990
f 1991 1992 1990
v -3.0000 22.0000 1.0000
v -3.0000 22.0000 -1.0000
v -3.0000 20.0000 1.0000
v -3.0000 20.0000 -1.0000
v -5.0000 22.0000 -1.0000
v -5.0000 22.0000 1.0000
v -5.0000 20.0000 -1.0000
v -5.0000 20.0000 1.0000
v -5.0000 22.0000 -1.0000
v -3.0000 22.0000 -1.0000
v -5.0000 22.0000 1.0000
v -3.0000 22.0000 1.0000
v -5.0000 20.0000 1.0000
v -3.0000 20.0000 1.0000
v -5.0000 20.0000 -1.0000
v -3.0000 20.0000 -1.0000
v -5.0000 22.0000 1.0000
v -3.0000 22.0000 1.0000
v -5.0000 20.0000 1.0000
v -3.0000 20.0000 1.0000
v -3.0000 22.0000 -1.0000
v -5.0000 22.0000 -1.0000
v -3.0000 20.0000 -1.0000
v -5.0000 20.0000 -1.0000
f 1993 1995 1994
f 1995 1996 1994
f 1997 1999 1998
f 1999 2000 1998
f 2001 2003 2002
f 2003 2004 2002
f 2005 2007 2006
f 2007 2008 2006
f 2009 2011 2010
f 2011 2012 2010
f 2013 2015 2014
f 2015 2016 2014
v 1.0000 20.0000 3.0000
v 1.0000 20.0000 1.0000
v 1.0000 18.0000 3.0000
v 1.0000 18.0000 1.0000
v -1.0000 20.0000 1.0000
v -1.0000 20.0000 3.0000
v -1.0000 18.0000 1.0000
v -1.0000 18.0000 3.0000
v -1.0000 20.0000 1.0000
v 1.0000 20.0000 1.0000
v -1.0000 20.0000 3.0000
v 1.0000 20.0000 3.0000
v -1.0000 18.0000 3.0000
v 1.0000 18.0000 3.0000
v -1.0000 18.0000 1.0000
v 1.0000 18.0000 1.0000
v -1.0000 20.0000 3.0000
v 1.0000 20.0000 3.0000
v -1.0000 18.0000 3.0000
v 1.0000 18.0000 3.0000
v 1.0000 20.0000 1.0000
v -1.0000 20.0000 1.0000
v 1.0000 18.0000 1.0000
v -1.0000 18.0000 1.0000
f 2017 2019 2018
f 2019 2020 2018
f 2021 2023 2022
f 2023 2024 2022
f 2025 2027 2026
f 2027 2028 2026
f 2029 2031 2030
f 2031 2032 2030
f 2033 2035 2034
f 2035 2036 2034
f 2037 2039 2038
f 2039 2040 2038
v 5.0000 20.0000 -1.0000
v 5.0000 20.0000 -3.0000
v 5.0000 18.0000 -1.0000
v 5.0000 18.0000 -3.0000
v 3.0000 20.0000 -3.0000
v 3.0000 20.0000 -1.0000
v 3.0000 18.0000 -3.0000
v 3.0000 18.0000 -1.0000
v 3.0000 20.0000 -3.0000
v 5.0000 20.0000 -3.0000
v 3.0000 20.0000 -1.0000
v 5.0000 20.0000 -1.0000
v 3.0000 18.0000 -1.0000
v 5.0000 18.0000 -1.0000
v 3.0000 18.0000 -3.0000
v 5.0000 18.0000 -3.0000
v 3.0000 20.0000 -1.0000
v 5.0000 20.0000 -1.0000
v 3.0000 18.0000 -1.0000
v 5.0000 18.0000 -1.0000
v 5.0000 20.0000 -3.0000
v 3.0000 20.0000 -3.0000
v 5.0000 18.0000 -3.0000
v 3.0000 18.0000 -3.0000
f 2041 2043 2042
f 2043 2044 2042
f 2045 2047 2046
f 2047 2048 2046
f 2049 2051 2050
f 2051 2052 2050
f 2053 2055 2054
f 2055 2056 2054
f 2057 2059 2058
f 2059 2060 2058
f 2061 2063 2062
f 2063 2064 2062
v 1.0000 26.0000 -1.0000
v 1.0000 26.0000 -3.0000
v 1.0000 24.0000 -1.0000
v 1.0000 24.0000 -3.0000
v -1.0000 26.0000 -3.0000
v -1.0000 26.0000 -1.0000
v -1.0000 24.0000 -3.0000
v -1.0000 24.0000 -1.0000
v -1.0000 26.0000 -3.0000
v 1.0000 26.0000 -3.0000
v -1.0000 26.0000 -1.0000
v 1.0000 26.0000 -1.0000
v -1.0000 24.0000 -1.0000
v 1.0000 24.0000 -1.0000
v -1.0000 24.0000 -3.0000
v 1.0000 24.0000 -3.0000
v -1.0000 26.0000 -1.0000
v 1.0000 26.0000 -1.0000
v -1.0000 24.0000 -1.0000
v 1.0000 24.0000 -1.0000
v 1.0000 26.0000 -3.0000
v -1.0000 26.0000 -3.0000
v 1.0000 24.0000 -3.0000
v -1.0000 24.0000 -3.0000
f 2065 2067 2066
f 2067 2068 2066
f 2069 2071 2070
f 2071 2072 2070
f 2073 2075 2074
f 2075 2076 2074
f 2077 2079 2078
f 2079 2080 2078
f 2081 2083 2082
f 2083 2084 2082
f 2085 2087 2086
f 2087 2088 2086
v 7.0000 32.0000 -1.0000
v 7.0000 32.0000 -3.0000
v 7.0000 30.0000 -1.0000
v 7.0000 30.0000 -3.0000
v 5.0000 32.0000 -3.0000
v 5.0000 32.0000 -1.0000
v 5.0000 30.0000 -3.0000
v 5.0000 30.0000 -1.0000
v 5.0000 32.0000 -3.0000
v 7.0000 32.0000 -3.0000
v 5.0000 32.0000 -1.0000
v 7.0000 32.0000 -1.0000
v 5.0000 30.0000 -1.0000
v 7.0000 30.0000 -1.0000
v 5.0000 30.0000 -3.0000
v 7.0000 30.0000 -3.0000
v 5.0000 32.0000 -1.0000
v 7.0000 32.0000 -1.0000
v 5.0000 30.0000 -1.0000
v 7.0000 30.0000 -1.0000
v 7.0000 32.0000 -3.0000
v 5.0000 32.0000 -3.0000
v 7.0000 30.0000 -3.0000
v 5.0000 30.0000 -3.0000
f 2089 2091 2090
f 2091 2092 2090
f 2093 2095 2094
f 2095 2096 2094
f 2097 2099 2098
f 2099 2100 2098
f 2101 2103 2102
f 2103 2104 2102
f 2105 2107 2106
f 2107 2108 2106
f 2109 2111 2110
f 2111 2112 2110
v 1.0000 26.0000 5.0000
v 1.0000 26.0000 3.0000
v 1.0000 24.0000 5.0000
v 1.0000 24.0000 3.0000
v -1.0000 26.0000 3.0000
v -1.0000 26.0000 5.0000
v -1.0000 24.0000 3.0000
v -1.0000 24.0000 5.0000
v -1.0000 26.0000 3.0000
v 1.0000 26.0000 3.0000
v -1.0000 26.0000 5.0000
v 1.0000 26.0000 5.0000
v -1.0000 24.0000 5.0000
v 1.0000 24.0000 5.0000
v -1.0000 24.0000 3.0000
v 1.0000 24.0000 3.0000
v -1.0000 26.0000 5.0000
v 1.0000 26.0000 5.0000
v -1.0000 24.0000 5.0000
v 1.0000 24.0000 5.0000
v 1.0000 26.0000 3.0000
v -1.0000 26.0000 3.0000
v 1.0000 24.0000 3.0000
v -1.0000 24.0000 3.0000
f 2113 2115 2114
f 2115 2116 2114
f 2117 2119 2118
f 2119 2120 2118
f 2121 2123 2122
f 2123 2124 2122
f 2125 2127 2126
f 2127 2128 2126
f 2129 2131 2130
f 2131 2132 2130
f 2133 2135 2134
f 2135 2136 2134
v 5.0000 6.0000 -1.0000
v 5.0000 6.0000 -3.0000
v 5.0000 4.0000 -1.0000
v 5.0000 4.0000 -3.0000
v 3.0000 6.0000 -3.0000
v 3.0000 6.0000 -1.0000
v 3.0000 4.0000 -3.0000
v 3.0000 4.0000 -1.0000
v 3.0000 6.0000 -3.0000
v 5.0000 6.0000 -3.0000
v 3.0000 6.0000 -1.0000
v 5.0000 6.0000 -1.0000
v 3.0000 4.0000 -1.0000
v 5.0000 4.0000 -1.0000
v 3.0000 4.0000 -3.0000
v 5.0000 4.0000 -3.0000
v 3.0000 6.0000 -1.0000
v 5.0000 6.0000 -1.0000
v 3.0000 4.0000 -1.0000
v 5.0000 4.0000 -1.0000
v 5.0000 6.0000 -3.0000
v 3.0000 6.0000 -3.0000
v 5.0000 4.0000 -3.0000
v 3.0000 4.0000 -3.0000
f 2137 2139 2138
f 2139 2140 2138
f 2141 2143 2142
f 2143 2144 2142
f 2145 2147 2146
f 2147 2148 2146
f 2149 2151 2150
f 2151 2152 2150
f 2153 2155 2154
f 2155 2156 2154
f 2157 2159 2158
f 2159 2160 2158
v 3.0000 28.0000 1.0000
v 3.0000 28.0000 -1.0000
v 3.0000 26.0000 1.0000
v 3.0000 26.0000 -1.0000
v 1.0000 28.0000 -1.0000
v 1.0000 28.0000 1.0000
v 1.0000 26.0000 -1.0000
v 1.0000 26.0000 1.0000
v 1.0000 28.0000 -1.0000
v 3.0000 28.0000 -1.0000
v 1.0000 28.0000 1.0000
v 3.0000 28.0000 1.0000
v 1.0000 26.0000 1.0000
v 3.0000 26.0000 1.0000
v 1.0000 26.0000 -1.0000
v 3.0000 26.0000 -1.0000
v 1.0000 28.0000 1.0000
v 3.0000 28.0000 1.0000
v 1.0000 26.0000 1.0000
v 3.0000 26.0000 1.0000
v 3.0000 28.0000 -1.0000
v 1.0000 28.0000 -1.0000
v 3.0000 26.0000 -1.0000
v 1.0000 26.0000 -1.0000
f 2161 2163 2162
f 2163 2164 2162
f 2165 2167 2166
f 2167 2168 2166
f 2169 2171 2170
f 2171 2172 2170
f 2173 2175 2174
f 2175 2176 2174
f 2177 2179 2178
f 2179 2180 2178
f 2181 2183 2182
f 2183 2184 2182
v 3.0000 26.0000 3.0000
v 3.0000 26.0000 1.0000
v 3.0000 24.0000 3.0000
v 3.0000 24.0000 1.0000
v 1.0000 26.0000 1.0000
v 1.0000 26.0000 3.0000
v 1.0000 24.0000 1.0000
v 1.0000 24.0000 3.0000
v 1.0000 26.0000 1.0000
v 3.0000 26.0000 1.0000
v 1.0000 26.0000 3.0000
v 3.0000 26.0000 3.0000
v 1.0000 24.0000 3.0000
v 3.0000 24.0000 3.0000
v 1.0000 24.0000 1.0000
v 3.0000 24.0000 1.0000
v 1.0000 26.0000 3.0000
v 3.0000 26.0000 3.0000
v 1.0000 24.0000 3.0000
v 3.0000 24.0000 3.0000
v 3.0000 26.0000 1.0000
v 1.0000 26.0000 1.0000
v 3.0000 24.0000 1.0000
v 1.0000 24.0000 1.0000
f 2185 2187 2186
f 2187 2188 2186
f 2189 2191 2190
f 2191 2192 2190
f 2193 2195 2194
f 2195 2196 2194
f 2197 2199 2198
f 2199 2200 2198
f 2201 2203 2202
f 2203 2204 2202
f 2205 2207 2206
f 2207 2208 2206
v 3.0000 32.0000 3.0000
v 3.0000 32.0000 1.0000
v 3.0000 30.0000 3.0000
v 3.0000 30.0000 1.0000
v 1.0000 32.0000 1.0000
v 1.0000 32.0000 3.0000
v 1.0000 30.0000 1.0000
v 1.0000 30.0000 3.0000
v 1.0000 32.0000 1.0000
v 3.0000 32.0000 1.0000
v 1.0000 32.0000 3.0000
v 3.0000 32.0000 3.0000
v 1.0000 30.0000 3.0000
v 3.0000 30.0000 3.0000
v 1.0000 30.0000 1.0000
v 3.0000 30.0000 1.0000
v 1.0000 32.0000 3.0000
v 3.0000 32.0000 3.0000
v 1.0000 30.0000 3.0000
v 3.0000 30.0000 3.0000
v 3.0000 32.0000 1.0000
v 1.0000 32.0000 1.0000
v 3.0000 30.0000 1.0000
v 1.0000 30.0000 1.0000
f 2209 2211 2210
f 2211 2212 2210
f 2213 2215 2214
f 2215 2216 2214
f 2217 2219 2218
f 2219 2220 2218
f 2221 2223 2222
f 2223 2224 2222
f 2225 2227 2226
f 2227 2228 2226
f 2229 2231 2230
f 2231 2232 2230
v 1.0000 8.0000 5.0000
v 1.0000 8.0000 3.0000
v 1.0000 6.0000 5.0000
v 1.0000 6.0000 3.0000
v -1.0000 8.0000 3.0000
v -1.0000 8.0000 5.0000
v -1.0000 6.0000 3.0000
v -1.0000 6.0000 5.0000
v -1.0000 8.0000 3.0000
v 1.0000 8.0000 3.0000
v -1.0000 8.0000 5.0000
v 1.0000 8.0000 5.0000
v -1.0000 6.0000 5.0000
v 1.0000 6.0000 5.0000
v -1.0000 6.0000 3.0000
v 1.0000 6.0000 3.0000
v -1.0000 8.0000 5.0000
v 1.0000 8.0000 5.0000
v -1.0000 6.0000 5.0000
v 1.0000 6.0000 5.0000
v 1.0000 8.0000 3.0000
v -1.0000 8.0000 3.0000
v 1.0000 6.0000 3.0000
v -1.0000 6.0000 3.0000
f 2233 2235 2234
f 2235 2236 2234
f 2237 2239 2238
f 2239 2240 2238
f 2241 2243 2242
f 2243 2244 2242
f 2245 2247 2246
f 2247 2248 2246
f 2249 2251 2250
f 2251 2252 2250
f 2253 2255 2254
f 2255 2256 2254
v 5.0000 34.0000 7.0000
v 5.0000 34.0000 5.0000
v 5.0000 32.0000 7.0000
v 5.0000 32.0000 5.0000
v 3.0000 34.0000 5.0000
v 3.0000 34.0000 7.0000
v 3.0000 32.0000 5.0000
v 3.0000 32.0000 7.0000
v 3.0000 34.0000 5.0000
v 5.0000 34.0000 5.0000
v 3.0000 34.0000 7.0000
v 5.0000 34.0000 7.0000
v 3.0000 32.0000 7.0000
v 5.0000 32.0000 7.0000
v 3.0000 32.0000 5.0000
v 5.0000 32.0000 5.0000
v 3.0000 34.0000 7.0000
v 5.0000 34.0000 7.0000
v 3.0000 32.0000 7.0000
v 5.0000 32.0000 7.0000
v 5.0000 34.0000 5.0000
v 3.0000 34.0000 5.0000
v 5.0000 32.0000 5.0000
v 3.0000 32.0000 5.0000
f 2257 2259 2258
f 2259 2260 2258
f 2261 2263 2262
f 2263 2264 2262
f 2265 2267 2266
f 2267 2268 2266
f 2269 2271 2270
f 2271 2272 2270
f 2273 2275 2274
f 2275 2276 2274
f 2277 2279 2278
f 2279 2280 2278
v 7.0000 34.0000 5.0000
v 7.0000 34.0000 3.0000
v 7.0000 32.0000 5.0000
v 7.0000 32.0000 3.0000
v 5.0000 34.0000 3.0000
v 5.0000 34.0000 5.0000
v 5.0000 32.0000 3.0000
v 5.0000 32.0000 5.0000
v 5.0000 34.0000 3.0000
v 7.0000 34.0000 3.0000
v 5.0000 34.0000 5.0000
v 7.0000 34.0000 5.0000
v 5.0000 32.0000 5.0000
v 7.0000 32.0000 5.0000
v 5.0000 32.0000 3.0000
v 7.0000 32.0000 3.0000
v 5.0000 34.0000 5.0000
v 7.0000 34.0000 5.0000
v 5.0000 32.0000 5.0000
v 7.0000 32.0000 5.0000
v 7.0000 34.0000 3.0000
v 5.0000 34.0000 3.0000
v 7.0000 32.0000 3.0000
v 5.0000 32.0000 3.0000
f 2281 2283 2282
f 2283 2284 2282
f 2285 2287 2286
f 2287 2288 2286
f 2289 2291 2290
f 2291 2292 2290
f 2293 2295 2294
f 2295 2296 2294
f 2297 2299 2298
f 2299 2300 2298
f 2301 2303 2302
f 2303 2304 2302
v 1.0000 10.0000 3.0000
v 1.0000 10.0000 1.0000
v 1.0000 8.0000 3.0000
v 1.0000 8.0000 1.0000
v -1.0000 10.0000 1.0000
v -1.0000 10.0000 3.0000
v -1.0000 8.0000 1.0000
v -1.0000 8.0000 3.0000
v -1.0000 10.0000 1.0000
v 1.0000 10.0000 1.0000
v -1.0000 10.0000 3.0000
v 1.0000 10.0000 3.0000
v -1.0000 8.0000 3.0000
v 1.0000 8.0000 3.0000
v -1.0000 8.0000 1.0000
v 1.0000 8.0000 1.0000
v -1.0000 10.0000 3.0000
v 1.0000 10.0000 3.0000
v -1.0000 8.0000 3.0000
v 1.0000 8.0000 3.0000
v 1.0000 10.0000 1.0000
v -1.0000 10.0000 1.0000
v 1.0000 8.0000 1.0000
v -1.0000 8.0000 1.0000
f 2305 2307 2306
f 2307 2308 2306
f 2309 2311 2310
f 2311 2312 2310
f 2313 2315 2314
f 2315 2316 2314
f 2317 2319 2318
f 2319 2320 2318
f 2321 2323 2322
f 2323 2324 2322
f 2325 2327 2326
f 2327 2328 2326
v -1.0000 6.0000 5.0000
v -1.0000 6.0000 3.0000
v -1.0000 4.0000 5.0000
v -1.0000 4.0000 3.0000
v -3.0000 6.0000 3.0000
v -3.0000 6.0000 5.0000
v -3.0000 4.0000 3.0000
v -3.0000 4.0000 5.0000
v -3.0000 6.0000 3.0000
v -1.0000 6.0000 3.0000
v -3.0000 6.0000 5.0000
v -1.0000 6.0000 5.0000
v -3.0000 4.0000 5.0000
v -1.0000 4.0000 5.0000
v -3.0000 4.0000 3.0000
v -1.0000 4.0000 3.0000
v -3.0000 6.0000 5.0000
v -1.0000 6.0000 5.0000
v -3.0000 4.0000 5.0000
v -1.0000 4.0000 5.0000
v -1.0000 6.0000 3.0000
v -3.0000 6.0000 3.0000
v -1.0000 4.0000 3.0000
v -3.0000 4.0000 3.0000
f 2329 2331 2330
f 2331 2332 2330
f 2333 2335 2334
f 2335 2336 2334
f 2337 2339 2338
f 2339 2340 2338
f 2341 2343 2342
f 2343 2344 2342
f 2345 2347 2346
f 2347 2348 2346
f 2349 2351 2350
f 2351 2352 2350
v 3.0000 12.0000 -1.0000
v 3.0000 12.0000 -3.0000
v 3.0000 10.0000 -1.0000
v 3.0000 10.0000 -3.0000
v 1.0000 12.0000 -3.0000
v 1.0000 12.0000 -1.0000
v 1.0000 10.0000 -3.0000
v 1.0000 10.0000 -1.0000
v 1.0000 12.0000 -3.0000
v 3.0000 12.0000 -3.0000
v 1.0000 12.0000 -1.0000
v 3.0000 12.0000 -1.0000
v 1.0000 10.0000 -1.0000
v 3.0000 10.0000 -1.0000
v 1.0000 10.0000 -3.0000
v 3.0000 10.0000 -3.0000
v 1.0000 12.0000 -1.0000
v 3.0000 12.0000 -1.0000
v 1.0000 10.0000 -1.0000
v 3.0000 10.0000 -1.0000
v 3.0000 12.0000 -3.0000
v 1.0000 12.0000 -3.0000
v 3.0000 10.0000 -3.0000
v 1.0000 10.0000 -3.0000
f 2353 2355 2354
f 2355 2356 2354
f 2357 2359 2358
f 2359 2360 2358
f 2361 2363 2362
f 2363 2364 2362
f 2365 2367 2366
f 2367 2368 2366
f 2369 2371 2370
f 2371 2372 2370
f 2373 2375 2374
f 2375 2376 2374
v 1.0000 8.0000 -1.0000
v 1.0000 8.0000 -3.0000
v 1.0000 6.0000 -1.0000
v 1.0000 6.0000 -3.0000
v -1.0000 8.0000 -3.0000
v -1.0000 8.0000 -1.0000
v -1.0000 6.0000 -3.0000
v -1.0000 6.0000 -1.0000
v -1.0000 8.0000 -3.0000
v 1.0000 8.0000 -3.0000
v -1.0000 8.0000 -1.0000
v 1.0000 8.0000 -1.0000
v -1.0000 6.0000 -1.0000
v 1.0000 6.0000 -1.0000
v -1.0000 6.0000 -3.0000
v 1.0000 6.0000 -3.0000
v -1.0000 8.0000 -1.0000
v 1.0000 8.0000 -1.0000
v -1.0000 6.0000 -1.0000
v 1.0000 6.0000 -1.0000
v 1.0000 8.0000 -3.0000
v -1.0000 8.0000 -3.0000
v 1.0000 6.0000 -3.0000
v -1.0000 6.0000 -3.0000
f 2377 2379 2378
f 2379 2380 2378
f 2381 2383 2382
f 2383 2384 2382
f 2385 2387 2386
f 2387 2388 2386
f 2389 2391 2390
f 2391 2392 2390
f 2393 2395 2394
f 2395 2396 2394
f 2397 2399 2398
f 2399 2400 2398
